<mxfile host="app.diagrams.net" modified="2024-02-15T02:13:15.026Z" agent="Mozilla/5.0 (X11; Linux x86_64) AppleWebKit/537.36 (KHTML, like Gecko) Chrome/121.0.0.0 Safari/537.36" etag="EBBvoGgeNI0e9EEEYuaA" version="23.1.4" type="device">
  <diagram id="-Kegu3x4Kq4TtlcAsU5u" name="Page-1">
    <mxGraphModel dx="775" dy="406" grid="1" gridSize="10" guides="1" tooltips="1" connect="1" arrows="1" fold="1" page="1" pageScale="1" pageWidth="827" pageHeight="1169" math="0" shadow="0">
      <root>
        <mxCell id="0" />
        <mxCell id="1" parent="0" />
        <mxCell id="ADRR5VOEZKfYwD3EOIca-24" style="edgeStyle=none;rounded=0;orthogonalLoop=1;jettySize=auto;html=1;exitX=0.5;exitY=0;exitDx=0;exitDy=0;endArrow=none;endFill=0;labelBackgroundColor=none;fontColor=default;strokeColor=#A8201A;" parent="1" source="ADRR5VOEZKfYwD3EOIca-26" target="ADRR5VOEZKfYwD3EOIca-51" edge="1">
          <mxGeometry relative="1" as="geometry" />
        </mxCell>
        <mxCell id="ADRR5VOEZKfYwD3EOIca-25" style="edgeStyle=none;rounded=0;orthogonalLoop=1;jettySize=auto;html=1;exitX=0.5;exitY=0;exitDx=0;exitDy=0;endArrow=none;endFill=0;labelBackgroundColor=none;fontColor=default;strokeColor=#A8201A;" parent="1" source="ADRR5VOEZKfYwD3EOIca-26" target="ADRR5VOEZKfYwD3EOIca-52" edge="1">
          <mxGeometry relative="1" as="geometry" />
        </mxCell>
        <mxCell id="ADRR5VOEZKfYwD3EOIca-135" style="edgeStyle=orthogonalEdgeStyle;shape=connector;rounded=0;orthogonalLoop=1;jettySize=auto;html=1;exitX=1;exitY=0.5;exitDx=0;exitDy=0;entryX=0;entryY=0.5;entryDx=0;entryDy=0;labelBackgroundColor=default;strokeColor=#A8201A;align=center;verticalAlign=middle;fontFamily=Helvetica;fontSize=11;fontColor=#143642;endArrow=none;endFill=0;fillColor=#FAE5C7;" parent="1" source="ADRR5VOEZKfYwD3EOIca-26" target="ADRR5VOEZKfYwD3EOIca-134" edge="1">
          <mxGeometry relative="1" as="geometry" />
        </mxCell>
        <mxCell id="ADRR5VOEZKfYwD3EOIca-26" value="Area" style="rounded=0;whiteSpace=wrap;html=1;labelBackgroundColor=none;fillColor=#FAE5C7;strokeColor=#0F8B8D;fontColor=#143642;" parent="1" vertex="1">
          <mxGeometry x="161" y="112" width="80" height="40" as="geometry" />
        </mxCell>
        <mxCell id="ADRR5VOEZKfYwD3EOIca-51" value="&lt;u&gt;id&lt;/u&gt;" style="ellipse;whiteSpace=wrap;html=1;labelBackgroundColor=none;fillColor=#FAE5C7;strokeColor=#0F8B8D;fontColor=#143642;rounded=0;" parent="1" vertex="1">
          <mxGeometry x="130" y="80" width="61.5" height="20" as="geometry" />
        </mxCell>
        <mxCell id="ADRR5VOEZKfYwD3EOIca-52" value="name" style="ellipse;whiteSpace=wrap;html=1;labelBackgroundColor=none;fillColor=#FAE5C7;strokeColor=#0F8B8D;fontColor=#143642;rounded=0;" parent="1" vertex="1">
          <mxGeometry x="200" y="80" width="61" height="20" as="geometry" />
        </mxCell>
        <mxCell id="ADRR5VOEZKfYwD3EOIca-110" style="edgeStyle=none;rounded=0;orthogonalLoop=1;jettySize=auto;html=1;exitX=0.5;exitY=0;exitDx=0;exitDy=0;endArrow=none;endFill=0;labelBackgroundColor=none;fontColor=default;strokeColor=#A8201A;" parent="1" source="ADRR5VOEZKfYwD3EOIca-112" target="ADRR5VOEZKfYwD3EOIca-113" edge="1">
          <mxGeometry relative="1" as="geometry" />
        </mxCell>
        <mxCell id="ADRR5VOEZKfYwD3EOIca-111" style="edgeStyle=none;rounded=0;orthogonalLoop=1;jettySize=auto;html=1;exitX=0.5;exitY=0;exitDx=0;exitDy=0;endArrow=none;endFill=0;labelBackgroundColor=none;fontColor=default;strokeColor=#A8201A;" parent="1" source="ADRR5VOEZKfYwD3EOIca-112" target="ADRR5VOEZKfYwD3EOIca-114" edge="1">
          <mxGeometry relative="1" as="geometry" />
        </mxCell>
        <mxCell id="ADRR5VOEZKfYwD3EOIca-138" style="edgeStyle=orthogonalEdgeStyle;shape=connector;rounded=0;orthogonalLoop=1;jettySize=auto;html=1;exitX=1;exitY=0.5;exitDx=0;exitDy=0;entryX=0;entryY=0.5;entryDx=0;entryDy=0;labelBackgroundColor=default;strokeColor=#A8201A;align=center;verticalAlign=middle;fontFamily=Helvetica;fontSize=11;fontColor=#143642;endArrow=none;endFill=0;fillColor=#FAE5C7;" parent="1" source="ADRR5VOEZKfYwD3EOIca-112" target="ADRR5VOEZKfYwD3EOIca-137" edge="1">
          <mxGeometry relative="1" as="geometry" />
        </mxCell>
        <mxCell id="ADRR5VOEZKfYwD3EOIca-112" value="District" style="rounded=0;whiteSpace=wrap;html=1;labelBackgroundColor=none;fillColor=#FAE5C7;strokeColor=#0F8B8D;fontColor=#143642;" parent="1" vertex="1">
          <mxGeometry x="315" y="121" width="80" height="20" as="geometry" />
        </mxCell>
        <mxCell id="ADRR5VOEZKfYwD3EOIca-113" value="&lt;u&gt;id&lt;/u&gt;" style="ellipse;whiteSpace=wrap;html=1;labelBackgroundColor=none;fillColor=#FAE5C7;strokeColor=#0F8B8D;fontColor=#143642;rounded=0;" parent="1" vertex="1">
          <mxGeometry x="273" y="80" width="70" height="20" as="geometry" />
        </mxCell>
        <mxCell id="ADRR5VOEZKfYwD3EOIca-114" value="name" style="ellipse;whiteSpace=wrap;html=1;labelBackgroundColor=none;fillColor=#FAE5C7;strokeColor=#0F8B8D;fontColor=#143642;rounded=0;" parent="1" vertex="1">
          <mxGeometry x="345.5" y="80" width="70" height="20" as="geometry" />
        </mxCell>
        <mxCell id="ADRR5VOEZKfYwD3EOIca-115" style="edgeStyle=none;rounded=0;orthogonalLoop=1;jettySize=auto;html=1;exitX=0.5;exitY=0;exitDx=0;exitDy=0;endArrow=none;endFill=0;labelBackgroundColor=none;fontColor=default;strokeColor=#A8201A;" parent="1" source="ADRR5VOEZKfYwD3EOIca-117" target="ADRR5VOEZKfYwD3EOIca-118" edge="1">
          <mxGeometry relative="1" as="geometry" />
        </mxCell>
        <mxCell id="ADRR5VOEZKfYwD3EOIca-116" style="edgeStyle=none;rounded=0;orthogonalLoop=1;jettySize=auto;html=1;exitX=0.5;exitY=0;exitDx=0;exitDy=0;endArrow=none;endFill=0;labelBackgroundColor=none;fontColor=default;strokeColor=#A8201A;" parent="1" source="ADRR5VOEZKfYwD3EOIca-117" target="ADRR5VOEZKfYwD3EOIca-119" edge="1">
          <mxGeometry relative="1" as="geometry" />
        </mxCell>
        <mxCell id="ADRR5VOEZKfYwD3EOIca-117" value="Division" style="rounded=0;whiteSpace=wrap;html=1;labelBackgroundColor=none;fillColor=#FAE5C7;strokeColor=#0F8B8D;fontColor=#143642;" parent="1" vertex="1">
          <mxGeometry x="485" y="121" width="54.5" height="22" as="geometry" />
        </mxCell>
        <mxCell id="ADRR5VOEZKfYwD3EOIca-118" value="&lt;u&gt;id&lt;/u&gt;" style="ellipse;whiteSpace=wrap;html=1;labelBackgroundColor=none;fillColor=#FAE5C7;strokeColor=#0F8B8D;fontColor=#143642;rounded=0;" parent="1" vertex="1">
          <mxGeometry x="425.5" y="80" width="70" height="20" as="geometry" />
        </mxCell>
        <mxCell id="ADRR5VOEZKfYwD3EOIca-119" value="name" style="ellipse;whiteSpace=wrap;html=1;labelBackgroundColor=none;fillColor=#FAE5C7;strokeColor=#0F8B8D;fontColor=#143642;rounded=0;" parent="1" vertex="1">
          <mxGeometry x="508" y="80" width="70" height="20" as="geometry" />
        </mxCell>
        <mxCell id="ADRR5VOEZKfYwD3EOIca-132" value="" style="edgeStyle=orthogonalEdgeStyle;rounded=0;orthogonalLoop=1;jettySize=auto;html=1;endArrow=none;endFill=0;labelBackgroundColor=none;fontColor=default;strokeColor=#A8201A;" parent="1" source="ADRR5VOEZKfYwD3EOIca-120" target="ADRR5VOEZKfYwD3EOIca-131" edge="1">
          <mxGeometry relative="1" as="geometry" />
        </mxCell>
        <mxCell id="ADRR5VOEZKfYwD3EOIca-143" style="edgeStyle=orthogonalEdgeStyle;shape=connector;rounded=0;orthogonalLoop=1;jettySize=auto;html=1;exitX=1;exitY=0.5;exitDx=0;exitDy=0;labelBackgroundColor=default;strokeColor=#A8201A;align=center;verticalAlign=middle;fontFamily=Helvetica;fontSize=11;fontColor=#143642;endArrow=none;endFill=0;fillColor=#FAE5C7;" parent="1" source="ADRR5VOEZKfYwD3EOIca-120" target="ADRR5VOEZKfYwD3EOIca-142" edge="1">
          <mxGeometry relative="1" as="geometry" />
        </mxCell>
        <mxCell id="ADRR5VOEZKfYwD3EOIca-155" style="edgeStyle=orthogonalEdgeStyle;shape=connector;rounded=0;orthogonalLoop=1;jettySize=auto;html=1;exitX=0.5;exitY=1;exitDx=0;exitDy=0;entryX=0.5;entryY=0;entryDx=0;entryDy=0;labelBackgroundColor=default;strokeColor=#A8201A;align=center;verticalAlign=middle;fontFamily=Helvetica;fontSize=11;fontColor=#143642;endArrow=none;endFill=0;fillColor=#FAE5C7;" parent="1" source="ADRR5VOEZKfYwD3EOIca-120" target="ADRR5VOEZKfYwD3EOIca-154" edge="1">
          <mxGeometry relative="1" as="geometry" />
        </mxCell>
        <mxCell id="ADRR5VOEZKfYwD3EOIca-167" style="edgeStyle=none;shape=connector;rounded=0;orthogonalLoop=1;jettySize=auto;html=1;exitX=0;exitY=0.5;exitDx=0;exitDy=0;entryX=1;entryY=1;entryDx=0;entryDy=0;labelBackgroundColor=default;strokeColor=#A8201A;align=center;verticalAlign=middle;fontFamily=Helvetica;fontSize=11;fontColor=#143642;endArrow=none;endFill=0;fillColor=#FAE5C7;" parent="1" source="ADRR5VOEZKfYwD3EOIca-120" target="ADRR5VOEZKfYwD3EOIca-153" edge="1">
          <mxGeometry relative="1" as="geometry" />
        </mxCell>
        <mxCell id="ADRR5VOEZKfYwD3EOIca-169" style="edgeStyle=none;shape=connector;rounded=0;orthogonalLoop=1;jettySize=auto;html=1;exitX=0;exitY=0.5;exitDx=0;exitDy=0;entryX=1;entryY=0.5;entryDx=0;entryDy=0;labelBackgroundColor=default;strokeColor=#A8201A;align=center;verticalAlign=middle;fontFamily=Helvetica;fontSize=11;fontColor=#143642;endArrow=none;endFill=0;fillColor=#FAE5C7;" parent="1" source="ADRR5VOEZKfYwD3EOIca-120" target="ADRR5VOEZKfYwD3EOIca-158" edge="1">
          <mxGeometry relative="1" as="geometry" />
        </mxCell>
        <mxCell id="ADRR5VOEZKfYwD3EOIca-170" style="edgeStyle=none;shape=connector;rounded=0;orthogonalLoop=1;jettySize=auto;html=1;exitX=0;exitY=0.5;exitDx=0;exitDy=0;entryX=1;entryY=0.5;entryDx=0;entryDy=0;labelBackgroundColor=default;strokeColor=#A8201A;align=center;verticalAlign=middle;fontFamily=Helvetica;fontSize=11;fontColor=#143642;endArrow=none;endFill=0;fillColor=#FAE5C7;" parent="1" source="ADRR5VOEZKfYwD3EOIca-120" target="ADRR5VOEZKfYwD3EOIca-159" edge="1">
          <mxGeometry relative="1" as="geometry" />
        </mxCell>
        <mxCell id="ADRR5VOEZKfYwD3EOIca-171" style="edgeStyle=none;shape=connector;rounded=0;orthogonalLoop=1;jettySize=auto;html=1;exitX=0;exitY=0.5;exitDx=0;exitDy=0;entryX=1;entryY=0.5;entryDx=0;entryDy=0;labelBackgroundColor=default;strokeColor=#A8201A;align=center;verticalAlign=middle;fontFamily=Helvetica;fontSize=11;fontColor=#143642;endArrow=none;endFill=0;fillColor=#FAE5C7;" parent="1" source="ADRR5VOEZKfYwD3EOIca-120" target="ADRR5VOEZKfYwD3EOIca-160" edge="1">
          <mxGeometry relative="1" as="geometry" />
        </mxCell>
        <mxCell id="ADRR5VOEZKfYwD3EOIca-172" style="edgeStyle=none;shape=connector;rounded=0;orthogonalLoop=1;jettySize=auto;html=1;exitX=0;exitY=0.5;exitDx=0;exitDy=0;entryX=1;entryY=0.5;entryDx=0;entryDy=0;labelBackgroundColor=default;strokeColor=#A8201A;align=center;verticalAlign=middle;fontFamily=Helvetica;fontSize=11;fontColor=#143642;endArrow=none;endFill=0;fillColor=#FAE5C7;" parent="1" source="ADRR5VOEZKfYwD3EOIca-120" target="ADRR5VOEZKfYwD3EOIca-161" edge="1">
          <mxGeometry relative="1" as="geometry" />
        </mxCell>
        <mxCell id="ADRR5VOEZKfYwD3EOIca-173" style="edgeStyle=none;shape=connector;rounded=0;orthogonalLoop=1;jettySize=auto;html=1;exitX=0;exitY=0.5;exitDx=0;exitDy=0;entryX=1;entryY=0.5;entryDx=0;entryDy=0;labelBackgroundColor=default;strokeColor=#A8201A;align=center;verticalAlign=middle;fontFamily=Helvetica;fontSize=11;fontColor=#143642;endArrow=none;endFill=0;fillColor=#FAE5C7;" parent="1" source="ADRR5VOEZKfYwD3EOIca-120" target="ADRR5VOEZKfYwD3EOIca-162" edge="1">
          <mxGeometry relative="1" as="geometry" />
        </mxCell>
        <mxCell id="ADRR5VOEZKfYwD3EOIca-174" style="edgeStyle=none;shape=connector;rounded=0;orthogonalLoop=1;jettySize=auto;html=1;exitX=0;exitY=0.5;exitDx=0;exitDy=0;entryX=1;entryY=0.5;entryDx=0;entryDy=0;labelBackgroundColor=default;strokeColor=#A8201A;align=center;verticalAlign=middle;fontFamily=Helvetica;fontSize=11;fontColor=#143642;endArrow=none;endFill=0;fillColor=#FAE5C7;" parent="1" source="ADRR5VOEZKfYwD3EOIca-120" target="ADRR5VOEZKfYwD3EOIca-163" edge="1">
          <mxGeometry relative="1" as="geometry" />
        </mxCell>
        <mxCell id="ADRR5VOEZKfYwD3EOIca-120" value="property" style="rounded=0;whiteSpace=wrap;html=1;labelBackgroundColor=none;fillColor=#FAE5C7;strokeColor=#0F8B8D;fontColor=#143642;" parent="1" vertex="1">
          <mxGeometry x="221" y="210" width="80" height="40" as="geometry" />
        </mxCell>
        <mxCell id="ADRR5VOEZKfYwD3EOIca-199" style="edgeStyle=none;shape=connector;rounded=0;orthogonalLoop=1;jettySize=auto;html=1;exitX=1;exitY=0.5;exitDx=0;exitDy=0;exitPerimeter=0;labelBackgroundColor=default;strokeColor=#A8201A;align=center;verticalAlign=middle;fontFamily=Helvetica;fontSize=11;fontColor=#143642;endArrow=none;endFill=0;fillColor=#FAE5C7;" parent="1" source="ADRR5VOEZKfYwD3EOIca-121" target="ADRR5VOEZKfYwD3EOIca-190" edge="1">
          <mxGeometry relative="1" as="geometry" />
        </mxCell>
        <mxCell id="ADRR5VOEZKfYwD3EOIca-200" style="edgeStyle=none;shape=connector;rounded=0;orthogonalLoop=1;jettySize=auto;html=1;exitX=1;exitY=0.5;exitDx=0;exitDy=0;exitPerimeter=0;entryX=0;entryY=1;entryDx=0;entryDy=0;labelBackgroundColor=default;strokeColor=#A8201A;align=center;verticalAlign=middle;fontFamily=Helvetica;fontSize=11;fontColor=#143642;endArrow=none;endFill=0;fillColor=#FAE5C7;" parent="1" source="ADRR5VOEZKfYwD3EOIca-121" target="ADRR5VOEZKfYwD3EOIca-191" edge="1">
          <mxGeometry relative="1" as="geometry" />
        </mxCell>
        <mxCell id="ADRR5VOEZKfYwD3EOIca-201" style="edgeStyle=none;shape=connector;rounded=0;orthogonalLoop=1;jettySize=auto;html=1;exitX=1;exitY=0.5;exitDx=0;exitDy=0;exitPerimeter=0;entryX=0;entryY=0.5;entryDx=0;entryDy=0;labelBackgroundColor=default;strokeColor=#A8201A;align=center;verticalAlign=middle;fontFamily=Helvetica;fontSize=11;fontColor=#143642;endArrow=none;endFill=0;fillColor=#FAE5C7;" parent="1" source="ADRR5VOEZKfYwD3EOIca-121" target="ADRR5VOEZKfYwD3EOIca-192" edge="1">
          <mxGeometry relative="1" as="geometry" />
        </mxCell>
        <mxCell id="ADRR5VOEZKfYwD3EOIca-202" style="edgeStyle=none;shape=connector;rounded=0;orthogonalLoop=1;jettySize=auto;html=1;exitX=1;exitY=0.5;exitDx=0;exitDy=0;exitPerimeter=0;entryX=0;entryY=0.5;entryDx=0;entryDy=0;labelBackgroundColor=default;strokeColor=#A8201A;align=center;verticalAlign=middle;fontFamily=Helvetica;fontSize=11;fontColor=#143642;endArrow=none;endFill=0;fillColor=#FAE5C7;" parent="1" source="ADRR5VOEZKfYwD3EOIca-121" target="ADRR5VOEZKfYwD3EOIca-193" edge="1">
          <mxGeometry relative="1" as="geometry" />
        </mxCell>
        <mxCell id="ADRR5VOEZKfYwD3EOIca-203" style="edgeStyle=none;shape=connector;rounded=0;orthogonalLoop=1;jettySize=auto;html=1;exitX=1;exitY=0.5;exitDx=0;exitDy=0;exitPerimeter=0;entryX=0;entryY=0.5;entryDx=0;entryDy=0;labelBackgroundColor=default;strokeColor=#A8201A;align=center;verticalAlign=middle;fontFamily=Helvetica;fontSize=11;fontColor=#143642;endArrow=none;endFill=0;fillColor=#FAE5C7;" parent="1" source="ADRR5VOEZKfYwD3EOIca-121" target="ADRR5VOEZKfYwD3EOIca-194" edge="1">
          <mxGeometry relative="1" as="geometry" />
        </mxCell>
        <mxCell id="ADRR5VOEZKfYwD3EOIca-204" style="edgeStyle=none;shape=connector;rounded=0;orthogonalLoop=1;jettySize=auto;html=1;exitX=1;exitY=0.5;exitDx=0;exitDy=0;exitPerimeter=0;entryX=0;entryY=0.5;entryDx=0;entryDy=0;labelBackgroundColor=default;strokeColor=#A8201A;align=center;verticalAlign=middle;fontFamily=Helvetica;fontSize=11;fontColor=#143642;endArrow=none;endFill=0;fillColor=#FAE5C7;" parent="1" source="ADRR5VOEZKfYwD3EOIca-121" target="ADRR5VOEZKfYwD3EOIca-195" edge="1">
          <mxGeometry relative="1" as="geometry" />
        </mxCell>
        <mxCell id="ADRR5VOEZKfYwD3EOIca-121" value="Apartment" style="rounded=0;whiteSpace=wrap;html=1;labelBackgroundColor=none;fillColor=#FAE5C7;strokeColor=#0F8B8D;fontColor=#143642;points=[[0,0,0,0,0],[0,0.25,0,0,0],[0,0.5,0,0,0],[0,0.75,0,0,0],[0,1,0,0,0],[0.25,0,0,0,0],[0.25,1,0,0,0],[0.5,0,0,0,0],[0.5,1,0,0,0],[0.75,0,0,0,0],[0.75,1,0,0,0],[1,0,0,0,0],[1,0.25,0,0,0],[1,0.5,0,0,0],[1,0.75,0,0,0],[1,1,0,0,0]];" parent="1" vertex="1">
          <mxGeometry x="458" y="210" width="80" height="40" as="geometry" />
        </mxCell>
        <mxCell id="ADRR5VOEZKfYwD3EOIca-150" style="edgeStyle=orthogonalEdgeStyle;shape=connector;rounded=0;orthogonalLoop=1;jettySize=auto;html=1;exitX=0.5;exitY=0;exitDx=0;exitDy=0;entryX=0.5;entryY=1;entryDx=0;entryDy=0;labelBackgroundColor=default;strokeColor=#A8201A;align=center;verticalAlign=middle;fontFamily=Helvetica;fontSize=11;fontColor=#143642;endArrow=none;endFill=0;fillColor=#FAE5C7;" parent="1" source="ADRR5VOEZKfYwD3EOIca-122" target="ADRR5VOEZKfYwD3EOIca-147" edge="1">
          <mxGeometry relative="1" as="geometry" />
        </mxCell>
        <mxCell id="ADRR5VOEZKfYwD3EOIca-181" style="edgeStyle=none;shape=connector;rounded=0;orthogonalLoop=1;jettySize=auto;html=1;exitX=0;exitY=0.5;exitDx=0;exitDy=0;entryX=1;entryY=0.5;entryDx=0;entryDy=0;labelBackgroundColor=default;strokeColor=#A8201A;align=center;verticalAlign=middle;fontFamily=Helvetica;fontSize=11;fontColor=#143642;endArrow=none;endFill=0;fillColor=#FAE5C7;" parent="1" source="ADRR5VOEZKfYwD3EOIca-122" target="ADRR5VOEZKfYwD3EOIca-177" edge="1">
          <mxGeometry relative="1" as="geometry" />
        </mxCell>
        <mxCell id="ADRR5VOEZKfYwD3EOIca-122" value="propertyImage" style="rounded=0;whiteSpace=wrap;html=1;labelBackgroundColor=none;fillColor=#FAE5C7;strokeColor=#0F8B8D;fontColor=#143642;" parent="1" vertex="1">
          <mxGeometry x="141" y="340" width="80" height="40" as="geometry" />
        </mxCell>
        <mxCell id="ADRR5VOEZKfYwD3EOIca-149" style="edgeStyle=orthogonalEdgeStyle;shape=connector;rounded=0;orthogonalLoop=1;jettySize=auto;html=1;exitX=0;exitY=0.5;exitDx=0;exitDy=0;entryX=1;entryY=0.5;entryDx=0;entryDy=0;labelBackgroundColor=default;strokeColor=#A8201A;align=center;verticalAlign=middle;fontFamily=Helvetica;fontSize=11;fontColor=#143642;endArrow=none;endFill=0;fillColor=#FAE5C7;" parent="1" source="ADRR5VOEZKfYwD3EOIca-123" edge="1">
          <mxGeometry relative="1" as="geometry">
            <mxPoint x="319" y="300" as="targetPoint" />
            <Array as="points" />
          </mxGeometry>
        </mxCell>
        <mxCell id="ADRR5VOEZKfYwD3EOIca-187" style="edgeStyle=none;shape=connector;rounded=0;orthogonalLoop=1;jettySize=auto;html=1;exitX=0.5;exitY=1;exitDx=0;exitDy=0;labelBackgroundColor=default;strokeColor=#A8201A;align=center;verticalAlign=middle;fontFamily=Helvetica;fontSize=11;fontColor=#143642;endArrow=none;endFill=0;fillColor=#FAE5C7;" parent="1" source="ADRR5VOEZKfYwD3EOIca-123" target="ADRR5VOEZKfYwD3EOIca-186" edge="1">
          <mxGeometry relative="1" as="geometry" />
        </mxCell>
        <mxCell id="ADRR5VOEZKfYwD3EOIca-188" style="edgeStyle=none;shape=connector;rounded=0;orthogonalLoop=1;jettySize=auto;html=1;exitX=0.5;exitY=1;exitDx=0;exitDy=0;entryX=0.5;entryY=0;entryDx=0;entryDy=0;labelBackgroundColor=default;strokeColor=#A8201A;align=center;verticalAlign=middle;fontFamily=Helvetica;fontSize=11;fontColor=#143642;endArrow=none;endFill=0;fillColor=#FAE5C7;" parent="1" source="ADRR5VOEZKfYwD3EOIca-123" target="ADRR5VOEZKfYwD3EOIca-185" edge="1">
          <mxGeometry relative="1" as="geometry" />
        </mxCell>
        <mxCell id="ADRR5VOEZKfYwD3EOIca-123" value="propertyDocument" style="rounded=0;whiteSpace=wrap;html=1;labelBackgroundColor=none;fillColor=#FAE5C7;strokeColor=#0F8B8D;fontColor=#143642;" parent="1" vertex="1">
          <mxGeometry x="349" y="280" width="120" height="40" as="geometry" />
        </mxCell>
        <mxCell id="XrSQAXkZcSsN4d7aBjkd-28" style="edgeStyle=none;rounded=0;orthogonalLoop=1;jettySize=auto;html=1;exitX=0;exitY=0.5;exitDx=0;exitDy=0;strokeColor=#A8201A;align=center;verticalAlign=middle;fontFamily=Helvetica;fontSize=11;fontColor=#143642;labelBackgroundColor=default;endArrow=none;endFill=0;fillColor=#FAE5C7;" edge="1" parent="1" source="ADRR5VOEZKfYwD3EOIca-124" target="XrSQAXkZcSsN4d7aBjkd-19">
          <mxGeometry relative="1" as="geometry" />
        </mxCell>
        <mxCell id="XrSQAXkZcSsN4d7aBjkd-29" style="edgeStyle=none;rounded=0;orthogonalLoop=1;jettySize=auto;html=1;exitX=0;exitY=0.5;exitDx=0;exitDy=0;entryX=1;entryY=0.5;entryDx=0;entryDy=0;strokeColor=#A8201A;align=center;verticalAlign=middle;fontFamily=Helvetica;fontSize=11;fontColor=#143642;labelBackgroundColor=default;endArrow=none;endFill=0;fillColor=#FAE5C7;" edge="1" parent="1" source="ADRR5VOEZKfYwD3EOIca-124" target="XrSQAXkZcSsN4d7aBjkd-20">
          <mxGeometry relative="1" as="geometry" />
        </mxCell>
        <mxCell id="XrSQAXkZcSsN4d7aBjkd-30" style="edgeStyle=none;rounded=0;orthogonalLoop=1;jettySize=auto;html=1;exitX=0;exitY=0.5;exitDx=0;exitDy=0;entryX=1;entryY=0.5;entryDx=0;entryDy=0;strokeColor=#A8201A;align=center;verticalAlign=middle;fontFamily=Helvetica;fontSize=11;fontColor=#143642;labelBackgroundColor=default;endArrow=none;endFill=0;fillColor=#FAE5C7;" edge="1" parent="1" source="ADRR5VOEZKfYwD3EOIca-124" target="XrSQAXkZcSsN4d7aBjkd-21">
          <mxGeometry relative="1" as="geometry" />
        </mxCell>
        <mxCell id="XrSQAXkZcSsN4d7aBjkd-31" style="edgeStyle=none;rounded=0;orthogonalLoop=1;jettySize=auto;html=1;exitX=0;exitY=0.5;exitDx=0;exitDy=0;entryX=1;entryY=0.5;entryDx=0;entryDy=0;strokeColor=#A8201A;align=center;verticalAlign=middle;fontFamily=Helvetica;fontSize=11;fontColor=#143642;labelBackgroundColor=default;endArrow=none;endFill=0;fillColor=#FAE5C7;" edge="1" parent="1" source="ADRR5VOEZKfYwD3EOIca-124" target="XrSQAXkZcSsN4d7aBjkd-22">
          <mxGeometry relative="1" as="geometry" />
        </mxCell>
        <mxCell id="XrSQAXkZcSsN4d7aBjkd-33" style="edgeStyle=none;rounded=0;orthogonalLoop=1;jettySize=auto;html=1;exitX=0;exitY=0.5;exitDx=0;exitDy=0;entryX=1;entryY=0.5;entryDx=0;entryDy=0;strokeColor=#A8201A;align=center;verticalAlign=middle;fontFamily=Helvetica;fontSize=11;fontColor=#143642;labelBackgroundColor=default;endArrow=none;endFill=0;fillColor=#FAE5C7;" edge="1" parent="1" source="ADRR5VOEZKfYwD3EOIca-124" target="XrSQAXkZcSsN4d7aBjkd-24">
          <mxGeometry relative="1" as="geometry" />
        </mxCell>
        <mxCell id="XrSQAXkZcSsN4d7aBjkd-40" style="edgeStyle=orthogonalEdgeStyle;rounded=0;orthogonalLoop=1;jettySize=auto;html=1;exitX=0.5;exitY=1;exitDx=0;exitDy=0;strokeColor=#A8201A;align=center;verticalAlign=middle;fontFamily=Helvetica;fontSize=11;fontColor=#143642;labelBackgroundColor=default;endArrow=none;endFill=0;fillColor=#FAE5C7;" edge="1" parent="1" source="ADRR5VOEZKfYwD3EOIca-124" target="XrSQAXkZcSsN4d7aBjkd-36">
          <mxGeometry relative="1" as="geometry" />
        </mxCell>
        <mxCell id="ADRR5VOEZKfYwD3EOIca-124" value="Owner" style="rounded=0;whiteSpace=wrap;html=1;labelBackgroundColor=none;fillColor=#FAE5C7;strokeColor=#0F8B8D;fontColor=#143642;" parent="1" vertex="1">
          <mxGeometry x="221" y="480" width="80" height="40" as="geometry" />
        </mxCell>
        <mxCell id="XrSQAXkZcSsN4d7aBjkd-43" style="edgeStyle=orthogonalEdgeStyle;rounded=0;orthogonalLoop=1;jettySize=auto;html=1;exitX=0;exitY=0.5;exitDx=0;exitDy=0;strokeColor=#A8201A;align=center;verticalAlign=middle;fontFamily=Helvetica;fontSize=11;fontColor=#143642;labelBackgroundColor=default;endArrow=none;endFill=0;fillColor=#FAE5C7;entryX=0.5;entryY=0;entryDx=0;entryDy=0;" edge="1" parent="1" source="ADRR5VOEZKfYwD3EOIca-125" target="XrSQAXkZcSsN4d7aBjkd-37">
          <mxGeometry relative="1" as="geometry">
            <Array as="points">
              <mxPoint x="310" y="470" />
              <mxPoint x="310" y="568" />
            </Array>
          </mxGeometry>
        </mxCell>
        <mxCell id="XrSQAXkZcSsN4d7aBjkd-47" style="edgeStyle=orthogonalEdgeStyle;rounded=0;orthogonalLoop=1;jettySize=auto;html=1;exitX=1;exitY=0.5;exitDx=0;exitDy=0;entryX=0;entryY=0.5;entryDx=0;entryDy=0;strokeColor=#A8201A;align=center;verticalAlign=middle;fontFamily=Helvetica;fontSize=11;fontColor=#143642;labelBackgroundColor=default;endArrow=none;endFill=0;fillColor=#FAE5C7;" edge="1" parent="1" source="ADRR5VOEZKfYwD3EOIca-125" target="XrSQAXkZcSsN4d7aBjkd-44">
          <mxGeometry relative="1" as="geometry" />
        </mxCell>
        <mxCell id="XrSQAXkZcSsN4d7aBjkd-60" style="rounded=0;orthogonalLoop=1;jettySize=auto;html=1;exitX=0.5;exitY=1;exitDx=0;exitDy=0;entryX=0;entryY=0.5;entryDx=0;entryDy=0;strokeColor=#A8201A;align=center;verticalAlign=middle;fontFamily=Helvetica;fontSize=11;fontColor=#143642;labelBackgroundColor=default;endArrow=none;endFill=0;fillColor=#FAE5C7;" edge="1" parent="1" source="ADRR5VOEZKfYwD3EOIca-125" target="XrSQAXkZcSsN4d7aBjkd-55">
          <mxGeometry relative="1" as="geometry" />
        </mxCell>
        <mxCell id="XrSQAXkZcSsN4d7aBjkd-61" style="edgeStyle=none;rounded=0;orthogonalLoop=1;jettySize=auto;html=1;exitX=0.5;exitY=1;exitDx=0;exitDy=0;entryX=0;entryY=0.5;entryDx=0;entryDy=0;strokeColor=#A8201A;align=center;verticalAlign=middle;fontFamily=Helvetica;fontSize=11;fontColor=#143642;labelBackgroundColor=default;endArrow=none;endFill=0;fillColor=#FAE5C7;" edge="1" parent="1" source="ADRR5VOEZKfYwD3EOIca-125" target="XrSQAXkZcSsN4d7aBjkd-56">
          <mxGeometry relative="1" as="geometry" />
        </mxCell>
        <mxCell id="XrSQAXkZcSsN4d7aBjkd-62" style="edgeStyle=none;rounded=0;orthogonalLoop=1;jettySize=auto;html=1;exitX=0.5;exitY=1;exitDx=0;exitDy=0;entryX=0;entryY=0.5;entryDx=0;entryDy=0;strokeColor=#A8201A;align=center;verticalAlign=middle;fontFamily=Helvetica;fontSize=11;fontColor=#143642;labelBackgroundColor=default;endArrow=none;endFill=0;fillColor=#FAE5C7;" edge="1" parent="1" source="ADRR5VOEZKfYwD3EOIca-125" target="XrSQAXkZcSsN4d7aBjkd-57">
          <mxGeometry relative="1" as="geometry" />
        </mxCell>
        <mxCell id="ADRR5VOEZKfYwD3EOIca-125" value="Tenant" style="rounded=0;whiteSpace=wrap;html=1;labelBackgroundColor=none;fillColor=#FAE5C7;strokeColor=#0F8B8D;fontColor=#143642;" parent="1" vertex="1">
          <mxGeometry x="320" y="450" width="80" height="40" as="geometry" />
        </mxCell>
        <mxCell id="XrSQAXkZcSsN4d7aBjkd-96" style="edgeStyle=none;rounded=0;orthogonalLoop=1;jettySize=auto;html=1;exitX=0.5;exitY=1;exitDx=0;exitDy=0;entryX=1;entryY=0.5;entryDx=0;entryDy=0;strokeColor=#A8201A;align=center;verticalAlign=middle;fontFamily=Helvetica;fontSize=11;fontColor=#143642;labelBackgroundColor=default;endArrow=none;endFill=0;fillColor=#FAE5C7;" edge="1" parent="1" source="ADRR5VOEZKfYwD3EOIca-126" target="XrSQAXkZcSsN4d7aBjkd-91">
          <mxGeometry relative="1" as="geometry" />
        </mxCell>
        <mxCell id="XrSQAXkZcSsN4d7aBjkd-99" style="edgeStyle=none;rounded=0;orthogonalLoop=1;jettySize=auto;html=1;exitX=0.5;exitY=1;exitDx=0;exitDy=0;entryX=1;entryY=0;entryDx=0;entryDy=0;strokeColor=#A8201A;align=center;verticalAlign=middle;fontFamily=Helvetica;fontSize=11;fontColor=#143642;labelBackgroundColor=default;endArrow=none;endFill=0;fillColor=#FAE5C7;" edge="1" parent="1" source="ADRR5VOEZKfYwD3EOIca-126" target="XrSQAXkZcSsN4d7aBjkd-94">
          <mxGeometry relative="1" as="geometry" />
        </mxCell>
        <mxCell id="ADRR5VOEZKfYwD3EOIca-126" value="User" style="rounded=0;whiteSpace=wrap;html=1;labelBackgroundColor=none;fillColor=#FAE5C7;strokeColor=#0F8B8D;fontColor=#143642;" parent="1" vertex="1">
          <mxGeometry x="218" y="595" width="80" height="30" as="geometry" />
        </mxCell>
        <mxCell id="XrSQAXkZcSsN4d7aBjkd-10" style="edgeStyle=none;rounded=0;orthogonalLoop=1;jettySize=auto;html=1;exitX=1;exitY=0.5;exitDx=0;exitDy=0;entryX=0;entryY=0.5;entryDx=0;entryDy=0;strokeColor=#A8201A;align=center;verticalAlign=middle;fontFamily=Helvetica;fontSize=11;fontColor=#143642;labelBackgroundColor=default;endArrow=none;endFill=0;fillColor=#FAE5C7;" edge="1" parent="1" source="ADRR5VOEZKfYwD3EOIca-127" target="XrSQAXkZcSsN4d7aBjkd-1">
          <mxGeometry relative="1" as="geometry" />
        </mxCell>
        <mxCell id="XrSQAXkZcSsN4d7aBjkd-11" style="edgeStyle=none;rounded=0;orthogonalLoop=1;jettySize=auto;html=1;exitX=1;exitY=0.5;exitDx=0;exitDy=0;entryX=0;entryY=0.5;entryDx=0;entryDy=0;strokeColor=#A8201A;align=center;verticalAlign=middle;fontFamily=Helvetica;fontSize=11;fontColor=#143642;labelBackgroundColor=default;endArrow=none;endFill=0;fillColor=#FAE5C7;" edge="1" parent="1" source="ADRR5VOEZKfYwD3EOIca-127" target="XrSQAXkZcSsN4d7aBjkd-2">
          <mxGeometry relative="1" as="geometry" />
        </mxCell>
        <mxCell id="XrSQAXkZcSsN4d7aBjkd-12" style="edgeStyle=none;rounded=0;orthogonalLoop=1;jettySize=auto;html=1;exitX=1;exitY=0.5;exitDx=0;exitDy=0;entryX=0;entryY=0.5;entryDx=0;entryDy=0;strokeColor=#A8201A;align=center;verticalAlign=middle;fontFamily=Helvetica;fontSize=11;fontColor=#143642;labelBackgroundColor=default;endArrow=none;endFill=0;fillColor=#FAE5C7;" edge="1" parent="1" source="ADRR5VOEZKfYwD3EOIca-127" target="XrSQAXkZcSsN4d7aBjkd-3">
          <mxGeometry relative="1" as="geometry" />
        </mxCell>
        <mxCell id="XrSQAXkZcSsN4d7aBjkd-14" style="edgeStyle=none;rounded=0;orthogonalLoop=1;jettySize=auto;html=1;exitX=1;exitY=0.5;exitDx=0;exitDy=0;entryX=0;entryY=0.5;entryDx=0;entryDy=0;strokeColor=#A8201A;align=center;verticalAlign=middle;fontFamily=Helvetica;fontSize=11;fontColor=#143642;labelBackgroundColor=default;endArrow=none;endFill=0;fillColor=#FAE5C7;" edge="1" parent="1" source="ADRR5VOEZKfYwD3EOIca-127" target="XrSQAXkZcSsN4d7aBjkd-4">
          <mxGeometry relative="1" as="geometry" />
        </mxCell>
        <mxCell id="XrSQAXkZcSsN4d7aBjkd-15" style="edgeStyle=none;rounded=0;orthogonalLoop=1;jettySize=auto;html=1;exitX=1;exitY=0.5;exitDx=0;exitDy=0;entryX=0;entryY=0.5;entryDx=0;entryDy=0;strokeColor=#A8201A;align=center;verticalAlign=middle;fontFamily=Helvetica;fontSize=11;fontColor=#143642;labelBackgroundColor=default;endArrow=none;endFill=0;fillColor=#FAE5C7;" edge="1" parent="1" source="ADRR5VOEZKfYwD3EOIca-127" target="XrSQAXkZcSsN4d7aBjkd-5">
          <mxGeometry relative="1" as="geometry" />
        </mxCell>
        <mxCell id="XrSQAXkZcSsN4d7aBjkd-16" style="edgeStyle=none;rounded=0;orthogonalLoop=1;jettySize=auto;html=1;exitX=1;exitY=0.5;exitDx=0;exitDy=0;entryX=0;entryY=0.5;entryDx=0;entryDy=0;strokeColor=#A8201A;align=center;verticalAlign=middle;fontFamily=Helvetica;fontSize=11;fontColor=#143642;labelBackgroundColor=default;endArrow=none;endFill=0;fillColor=#FAE5C7;" edge="1" parent="1" source="ADRR5VOEZKfYwD3EOIca-127" target="XrSQAXkZcSsN4d7aBjkd-6">
          <mxGeometry relative="1" as="geometry" />
        </mxCell>
        <mxCell id="XrSQAXkZcSsN4d7aBjkd-49" style="edgeStyle=orthogonalEdgeStyle;rounded=0;orthogonalLoop=1;jettySize=auto;html=1;exitX=0;exitY=0.5;exitDx=0;exitDy=0;entryX=1;entryY=0.5;entryDx=0;entryDy=0;strokeColor=#A8201A;align=center;verticalAlign=middle;fontFamily=Helvetica;fontSize=11;fontColor=#143642;labelBackgroundColor=default;endArrow=none;endFill=0;fillColor=#FAE5C7;" edge="1" parent="1" source="ADRR5VOEZKfYwD3EOIca-127" target="XrSQAXkZcSsN4d7aBjkd-44">
          <mxGeometry relative="1" as="geometry" />
        </mxCell>
        <mxCell id="XrSQAXkZcSsN4d7aBjkd-50" style="edgeStyle=orthogonalEdgeStyle;rounded=0;orthogonalLoop=1;jettySize=auto;html=1;exitX=0.5;exitY=0;exitDx=0;exitDy=0;entryX=0.5;entryY=1;entryDx=0;entryDy=0;strokeColor=#A8201A;align=center;verticalAlign=middle;fontFamily=Helvetica;fontSize=11;fontColor=#143642;labelBackgroundColor=default;endArrow=none;endFill=0;fillColor=#FAE5C7;" edge="1" parent="1" source="ADRR5VOEZKfYwD3EOIca-127">
          <mxGeometry relative="1" as="geometry">
            <mxPoint x="503" y="310" as="targetPoint" />
          </mxGeometry>
        </mxCell>
        <mxCell id="XrSQAXkZcSsN4d7aBjkd-53" style="edgeStyle=orthogonalEdgeStyle;rounded=0;orthogonalLoop=1;jettySize=auto;html=1;exitX=0.5;exitY=1;exitDx=0;exitDy=0;entryX=0.5;entryY=0;entryDx=0;entryDy=0;strokeColor=#A8201A;align=center;verticalAlign=middle;fontFamily=Helvetica;fontSize=11;fontColor=#143642;labelBackgroundColor=default;endArrow=none;endFill=0;fillColor=#FAE5C7;" edge="1" parent="1" source="ADRR5VOEZKfYwD3EOIca-127" target="XrSQAXkZcSsN4d7aBjkd-52">
          <mxGeometry relative="1" as="geometry">
            <Array as="points">
              <mxPoint x="558" y="416" />
              <mxPoint x="550" y="416" />
            </Array>
          </mxGeometry>
        </mxCell>
        <mxCell id="ADRR5VOEZKfYwD3EOIca-127" value="tenancy" style="rounded=0;whiteSpace=wrap;html=1;labelBackgroundColor=none;fillColor=#FAE5C7;strokeColor=#0F8B8D;fontColor=#143642;" parent="1" vertex="1">
          <mxGeometry x="518" y="366" width="80" height="40" as="geometry" />
        </mxCell>
        <mxCell id="XrSQAXkZcSsN4d7aBjkd-75" style="edgeStyle=none;rounded=0;orthogonalLoop=1;jettySize=auto;html=1;exitX=1;exitY=0.5;exitDx=0;exitDy=0;entryX=0;entryY=0.5;entryDx=0;entryDy=0;strokeColor=#A8201A;align=center;verticalAlign=middle;fontFamily=Helvetica;fontSize=11;fontColor=#143642;labelBackgroundColor=default;endArrow=none;endFill=0;fillColor=#FAE5C7;" edge="1" parent="1" source="ADRR5VOEZKfYwD3EOIca-128" target="XrSQAXkZcSsN4d7aBjkd-66">
          <mxGeometry relative="1" as="geometry" />
        </mxCell>
        <mxCell id="XrSQAXkZcSsN4d7aBjkd-76" style="edgeStyle=none;rounded=0;orthogonalLoop=1;jettySize=auto;html=1;exitX=1;exitY=0.5;exitDx=0;exitDy=0;entryX=0;entryY=0.5;entryDx=0;entryDy=0;strokeColor=#A8201A;align=center;verticalAlign=middle;fontFamily=Helvetica;fontSize=11;fontColor=#143642;labelBackgroundColor=default;endArrow=none;endFill=0;fillColor=#FAE5C7;" edge="1" parent="1" source="ADRR5VOEZKfYwD3EOIca-128" target="XrSQAXkZcSsN4d7aBjkd-67">
          <mxGeometry relative="1" as="geometry" />
        </mxCell>
        <mxCell id="XrSQAXkZcSsN4d7aBjkd-77" style="edgeStyle=none;rounded=0;orthogonalLoop=1;jettySize=auto;html=1;exitX=1;exitY=0.5;exitDx=0;exitDy=0;entryX=0;entryY=0.5;entryDx=0;entryDy=0;strokeColor=#A8201A;align=center;verticalAlign=middle;fontFamily=Helvetica;fontSize=11;fontColor=#143642;labelBackgroundColor=default;endArrow=none;endFill=0;fillColor=#FAE5C7;" edge="1" parent="1" source="ADRR5VOEZKfYwD3EOIca-128" target="XrSQAXkZcSsN4d7aBjkd-68">
          <mxGeometry relative="1" as="geometry" />
        </mxCell>
        <mxCell id="XrSQAXkZcSsN4d7aBjkd-78" style="edgeStyle=none;rounded=0;orthogonalLoop=1;jettySize=auto;html=1;exitX=1;exitY=0.5;exitDx=0;exitDy=0;entryX=0;entryY=0.5;entryDx=0;entryDy=0;strokeColor=#A8201A;align=center;verticalAlign=middle;fontFamily=Helvetica;fontSize=11;fontColor=#143642;labelBackgroundColor=default;endArrow=none;endFill=0;fillColor=#FAE5C7;" edge="1" parent="1" source="ADRR5VOEZKfYwD3EOIca-128" target="XrSQAXkZcSsN4d7aBjkd-70">
          <mxGeometry relative="1" as="geometry" />
        </mxCell>
        <mxCell id="XrSQAXkZcSsN4d7aBjkd-79" style="edgeStyle=none;rounded=0;orthogonalLoop=1;jettySize=auto;html=1;exitX=1;exitY=0.5;exitDx=0;exitDy=0;entryX=0;entryY=0.5;entryDx=0;entryDy=0;strokeColor=#A8201A;align=center;verticalAlign=middle;fontFamily=Helvetica;fontSize=11;fontColor=#143642;labelBackgroundColor=default;endArrow=none;endFill=0;fillColor=#FAE5C7;" edge="1" parent="1" source="ADRR5VOEZKfYwD3EOIca-128" target="XrSQAXkZcSsN4d7aBjkd-71">
          <mxGeometry relative="1" as="geometry" />
        </mxCell>
        <mxCell id="XrSQAXkZcSsN4d7aBjkd-80" style="edgeStyle=none;rounded=0;orthogonalLoop=1;jettySize=auto;html=1;exitX=1;exitY=0.5;exitDx=0;exitDy=0;entryX=0;entryY=0.5;entryDx=0;entryDy=0;strokeColor=#A8201A;align=center;verticalAlign=middle;fontFamily=Helvetica;fontSize=11;fontColor=#143642;labelBackgroundColor=default;endArrow=none;endFill=0;fillColor=#FAE5C7;" edge="1" parent="1" source="ADRR5VOEZKfYwD3EOIca-128" target="XrSQAXkZcSsN4d7aBjkd-69">
          <mxGeometry relative="1" as="geometry" />
        </mxCell>
        <mxCell id="XrSQAXkZcSsN4d7aBjkd-81" style="edgeStyle=none;rounded=0;orthogonalLoop=1;jettySize=auto;html=1;exitX=1;exitY=0.5;exitDx=0;exitDy=0;entryX=0;entryY=0.5;entryDx=0;entryDy=0;strokeColor=#A8201A;align=center;verticalAlign=middle;fontFamily=Helvetica;fontSize=11;fontColor=#143642;labelBackgroundColor=default;endArrow=none;endFill=0;fillColor=#FAE5C7;" edge="1" parent="1" source="ADRR5VOEZKfYwD3EOIca-128" target="XrSQAXkZcSsN4d7aBjkd-72">
          <mxGeometry relative="1" as="geometry" />
        </mxCell>
        <mxCell id="XrSQAXkZcSsN4d7aBjkd-83" style="edgeStyle=none;rounded=0;orthogonalLoop=1;jettySize=auto;html=1;exitX=1;exitY=0.5;exitDx=0;exitDy=0;entryX=0;entryY=0.5;entryDx=0;entryDy=0;strokeColor=#A8201A;align=center;verticalAlign=middle;fontFamily=Helvetica;fontSize=11;fontColor=#143642;labelBackgroundColor=default;endArrow=none;endFill=0;fillColor=#FAE5C7;" edge="1" parent="1" source="ADRR5VOEZKfYwD3EOIca-128" target="XrSQAXkZcSsN4d7aBjkd-73">
          <mxGeometry relative="1" as="geometry" />
        </mxCell>
        <mxCell id="XrSQAXkZcSsN4d7aBjkd-84" style="edgeStyle=none;rounded=0;orthogonalLoop=1;jettySize=auto;html=1;exitX=1;exitY=0.5;exitDx=0;exitDy=0;entryX=0;entryY=0.5;entryDx=0;entryDy=0;strokeColor=#A8201A;align=center;verticalAlign=middle;fontFamily=Helvetica;fontSize=11;fontColor=#143642;labelBackgroundColor=default;endArrow=none;endFill=0;fillColor=#FAE5C7;" edge="1" parent="1" source="ADRR5VOEZKfYwD3EOIca-128" target="XrSQAXkZcSsN4d7aBjkd-74">
          <mxGeometry relative="1" as="geometry" />
        </mxCell>
        <mxCell id="XrSQAXkZcSsN4d7aBjkd-113" style="edgeStyle=orthogonalEdgeStyle;rounded=0;orthogonalLoop=1;jettySize=auto;html=1;exitX=0;exitY=0.5;exitDx=0;exitDy=0;entryX=0.5;entryY=0;entryDx=0;entryDy=0;strokeColor=#A8201A;align=center;verticalAlign=middle;fontFamily=Helvetica;fontSize=11;fontColor=#143642;labelBackgroundColor=default;endArrow=none;endFill=0;fillColor=#FAE5C7;" edge="1" parent="1" source="ADRR5VOEZKfYwD3EOIca-128" target="XrSQAXkZcSsN4d7aBjkd-102">
          <mxGeometry relative="1" as="geometry">
            <Array as="points">
              <mxPoint x="490" y="543" />
              <mxPoint x="490" y="580" />
              <mxPoint x="443" y="580" />
            </Array>
          </mxGeometry>
        </mxCell>
        <mxCell id="ADRR5VOEZKfYwD3EOIca-128" value="invoice" style="rounded=0;whiteSpace=wrap;html=1;labelBackgroundColor=none;fillColor=#FAE5C7;strokeColor=#0F8B8D;fontColor=#143642;" parent="1" vertex="1">
          <mxGeometry x="503" y="528" width="80" height="30" as="geometry" />
        </mxCell>
        <mxCell id="XrSQAXkZcSsN4d7aBjkd-106" style="edgeStyle=none;rounded=0;orthogonalLoop=1;jettySize=auto;html=1;exitX=0.5;exitY=1;exitDx=0;exitDy=0;strokeColor=#A8201A;align=center;verticalAlign=middle;fontFamily=Helvetica;fontSize=11;fontColor=#143642;labelBackgroundColor=default;endArrow=none;endFill=0;fillColor=#FAE5C7;" edge="1" parent="1" source="ADRR5VOEZKfYwD3EOIca-129" target="XrSQAXkZcSsN4d7aBjkd-105">
          <mxGeometry relative="1" as="geometry" />
        </mxCell>
        <mxCell id="XrSQAXkZcSsN4d7aBjkd-108" style="edgeStyle=none;rounded=0;orthogonalLoop=1;jettySize=auto;html=1;exitX=0.5;exitY=1;exitDx=0;exitDy=0;entryX=0.5;entryY=0;entryDx=0;entryDy=0;strokeColor=#A8201A;align=center;verticalAlign=middle;fontFamily=Helvetica;fontSize=11;fontColor=#143642;labelBackgroundColor=default;endArrow=none;endFill=0;fillColor=#FAE5C7;" edge="1" parent="1" source="ADRR5VOEZKfYwD3EOIca-129" target="XrSQAXkZcSsN4d7aBjkd-104">
          <mxGeometry relative="1" as="geometry" />
        </mxCell>
        <mxCell id="XrSQAXkZcSsN4d7aBjkd-109" style="edgeStyle=none;rounded=0;orthogonalLoop=1;jettySize=auto;html=1;exitX=0.5;exitY=1;exitDx=0;exitDy=0;entryX=0.5;entryY=0;entryDx=0;entryDy=0;strokeColor=#A8201A;align=center;verticalAlign=middle;fontFamily=Helvetica;fontSize=11;fontColor=#143642;labelBackgroundColor=default;endArrow=none;endFill=0;fillColor=#FAE5C7;" edge="1" parent="1" source="ADRR5VOEZKfYwD3EOIca-129" target="XrSQAXkZcSsN4d7aBjkd-103">
          <mxGeometry relative="1" as="geometry" />
        </mxCell>
        <mxCell id="ADRR5VOEZKfYwD3EOIca-129" value="invoiceItems" style="rounded=0;whiteSpace=wrap;html=1;labelBackgroundColor=none;fillColor=#FAE5C7;strokeColor=#0F8B8D;fontColor=#143642;" parent="1" vertex="1">
          <mxGeometry x="485" y="627.5" width="80" height="25" as="geometry" />
        </mxCell>
        <mxCell id="XrSQAXkZcSsN4d7aBjkd-119" style="rounded=0;orthogonalLoop=1;jettySize=auto;html=1;exitX=0.5;exitY=1;exitDx=0;exitDy=0;entryX=1;entryY=0;entryDx=0;entryDy=0;strokeColor=#A8201A;align=center;verticalAlign=middle;fontFamily=Helvetica;fontSize=11;fontColor=#143642;labelBackgroundColor=default;endArrow=none;endFill=0;fillColor=#FAE5C7;" edge="1" parent="1" source="ADRR5VOEZKfYwD3EOIca-130" target="XrSQAXkZcSsN4d7aBjkd-115">
          <mxGeometry relative="1" as="geometry" />
        </mxCell>
        <mxCell id="XrSQAXkZcSsN4d7aBjkd-120" style="edgeStyle=none;rounded=0;orthogonalLoop=1;jettySize=auto;html=1;exitX=0.5;exitY=1;exitDx=0;exitDy=0;entryX=1;entryY=0;entryDx=0;entryDy=0;strokeColor=#A8201A;align=center;verticalAlign=middle;fontFamily=Helvetica;fontSize=11;fontColor=#143642;labelBackgroundColor=default;endArrow=none;endFill=0;fillColor=#FAE5C7;" edge="1" parent="1" source="ADRR5VOEZKfYwD3EOIca-130" target="XrSQAXkZcSsN4d7aBjkd-116">
          <mxGeometry relative="1" as="geometry" />
        </mxCell>
        <mxCell id="XrSQAXkZcSsN4d7aBjkd-121" style="edgeStyle=none;rounded=0;orthogonalLoop=1;jettySize=auto;html=1;exitX=0.5;exitY=1;exitDx=0;exitDy=0;entryX=0.5;entryY=0;entryDx=0;entryDy=0;strokeColor=#A8201A;align=center;verticalAlign=middle;fontFamily=Helvetica;fontSize=11;fontColor=#143642;labelBackgroundColor=default;endArrow=none;endFill=0;fillColor=#FAE5C7;" edge="1" parent="1" source="ADRR5VOEZKfYwD3EOIca-130" target="XrSQAXkZcSsN4d7aBjkd-118">
          <mxGeometry relative="1" as="geometry" />
        </mxCell>
        <mxCell id="XrSQAXkZcSsN4d7aBjkd-122" style="edgeStyle=none;rounded=0;orthogonalLoop=1;jettySize=auto;html=1;exitX=0.5;exitY=1;exitDx=0;exitDy=0;entryX=0.5;entryY=0;entryDx=0;entryDy=0;strokeColor=#A8201A;align=center;verticalAlign=middle;fontFamily=Helvetica;fontSize=11;fontColor=#143642;labelBackgroundColor=default;endArrow=none;endFill=0;fillColor=#FAE5C7;" edge="1" parent="1" source="ADRR5VOEZKfYwD3EOIca-130" target="XrSQAXkZcSsN4d7aBjkd-117">
          <mxGeometry relative="1" as="geometry" />
        </mxCell>
        <mxCell id="XrSQAXkZcSsN4d7aBjkd-125" style="edgeStyle=none;rounded=0;orthogonalLoop=1;jettySize=auto;html=1;exitX=0.5;exitY=1;exitDx=0;exitDy=0;entryX=0.5;entryY=0;entryDx=0;entryDy=0;strokeColor=#A8201A;align=center;verticalAlign=middle;fontFamily=Helvetica;fontSize=11;fontColor=#143642;labelBackgroundColor=default;endArrow=none;endFill=0;fillColor=#FAE5C7;" edge="1" parent="1" source="ADRR5VOEZKfYwD3EOIca-130" target="XrSQAXkZcSsN4d7aBjkd-123">
          <mxGeometry relative="1" as="geometry" />
        </mxCell>
        <mxCell id="XrSQAXkZcSsN4d7aBjkd-126" style="edgeStyle=none;rounded=0;orthogonalLoop=1;jettySize=auto;html=1;exitX=0.5;exitY=1;exitDx=0;exitDy=0;entryX=0;entryY=0;entryDx=0;entryDy=0;strokeColor=#A8201A;align=center;verticalAlign=middle;fontFamily=Helvetica;fontSize=11;fontColor=#143642;labelBackgroundColor=default;endArrow=none;endFill=0;fillColor=#FAE5C7;" edge="1" parent="1" source="ADRR5VOEZKfYwD3EOIca-130" target="XrSQAXkZcSsN4d7aBjkd-124">
          <mxGeometry relative="1" as="geometry" />
        </mxCell>
        <mxCell id="ADRR5VOEZKfYwD3EOIca-130" value="payment" style="rounded=0;whiteSpace=wrap;html=1;labelBackgroundColor=none;fillColor=#FAE5C7;strokeColor=#0F8B8D;fontColor=#143642;" parent="1" vertex="1">
          <mxGeometry x="335" y="614" width="60" height="30" as="geometry" />
        </mxCell>
        <mxCell id="ADRR5VOEZKfYwD3EOIca-133" style="edgeStyle=orthogonalEdgeStyle;rounded=0;orthogonalLoop=1;jettySize=auto;html=1;entryX=0.5;entryY=1;entryDx=0;entryDy=0;strokeColor=#A8201A;fontColor=#143642;fillColor=#FAE5C7;endArrow=none;endFill=0;" parent="1" source="ADRR5VOEZKfYwD3EOIca-131" target="ADRR5VOEZKfYwD3EOIca-26" edge="1">
          <mxGeometry relative="1" as="geometry">
            <Array as="points">
              <mxPoint x="261" y="160" />
              <mxPoint x="201" y="160" />
            </Array>
          </mxGeometry>
        </mxCell>
        <mxCell id="ADRR5VOEZKfYwD3EOIca-131" value="in" style="rhombus;whiteSpace=wrap;html=1;labelBackgroundColor=none;fillColor=#FAE5C7;strokeColor=#0F8B8D;fontColor=#143642;rounded=0;" parent="1" vertex="1">
          <mxGeometry x="235.75" y="170" width="49.5" height="22" as="geometry" />
        </mxCell>
        <mxCell id="ADRR5VOEZKfYwD3EOIca-136" style="edgeStyle=orthogonalEdgeStyle;shape=connector;rounded=0;orthogonalLoop=1;jettySize=auto;html=1;exitX=1;exitY=0.5;exitDx=0;exitDy=0;entryX=0;entryY=0.5;entryDx=0;entryDy=0;labelBackgroundColor=default;strokeColor=#A8201A;align=center;verticalAlign=middle;fontFamily=Helvetica;fontSize=11;fontColor=#143642;endArrow=none;endFill=0;fillColor=#FAE5C7;" parent="1" source="ADRR5VOEZKfYwD3EOIca-134" target="ADRR5VOEZKfYwD3EOIca-112" edge="1">
          <mxGeometry relative="1" as="geometry" />
        </mxCell>
        <mxCell id="ADRR5VOEZKfYwD3EOIca-134" value="in" style="rhombus;whiteSpace=wrap;html=1;labelBackgroundColor=none;fillColor=#FAE5C7;strokeColor=#0F8B8D;fontColor=#143642;rounded=0;" parent="1" vertex="1">
          <mxGeometry x="251" y="121" width="50" height="22" as="geometry" />
        </mxCell>
        <mxCell id="ADRR5VOEZKfYwD3EOIca-140" style="edgeStyle=orthogonalEdgeStyle;shape=connector;rounded=0;orthogonalLoop=1;jettySize=auto;html=1;exitX=1;exitY=0.5;exitDx=0;exitDy=0;entryX=0;entryY=0.5;entryDx=0;entryDy=0;labelBackgroundColor=default;strokeColor=#A8201A;align=center;verticalAlign=middle;fontFamily=Helvetica;fontSize=11;fontColor=#143642;endArrow=none;endFill=0;fillColor=#FAE5C7;" parent="1" source="ADRR5VOEZKfYwD3EOIca-137" target="ADRR5VOEZKfYwD3EOIca-117" edge="1">
          <mxGeometry relative="1" as="geometry" />
        </mxCell>
        <mxCell id="ADRR5VOEZKfYwD3EOIca-137" value="in" style="rhombus;whiteSpace=wrap;html=1;labelBackgroundColor=none;fillColor=#FAE5C7;strokeColor=#0F8B8D;fontColor=#143642;rounded=0;" parent="1" vertex="1">
          <mxGeometry x="408" y="120" width="50" height="22" as="geometry" />
        </mxCell>
        <mxCell id="ADRR5VOEZKfYwD3EOIca-145" style="edgeStyle=orthogonalEdgeStyle;shape=connector;rounded=0;orthogonalLoop=1;jettySize=auto;html=1;exitX=1;exitY=0.5;exitDx=0;exitDy=0;entryX=0;entryY=0.5;entryDx=0;entryDy=0;labelBackgroundColor=default;strokeColor=#A8201A;align=center;verticalAlign=middle;fontFamily=Helvetica;fontSize=11;fontColor=#143642;endArrow=none;endFill=0;fillColor=#FAE5C7;" parent="1" source="ADRR5VOEZKfYwD3EOIca-142" target="ADRR5VOEZKfYwD3EOIca-121" edge="1">
          <mxGeometry relative="1" as="geometry" />
        </mxCell>
        <mxCell id="ADRR5VOEZKfYwD3EOIca-142" value="of" style="rhombus;whiteSpace=wrap;html=1;labelBackgroundColor=none;fillColor=#FAE5C7;strokeColor=#0F8B8D;fontColor=#143642;rounded=0;" parent="1" vertex="1">
          <mxGeometry x="338" y="210" width="80" height="40" as="geometry" />
        </mxCell>
        <mxCell id="ADRR5VOEZKfYwD3EOIca-151" style="edgeStyle=orthogonalEdgeStyle;shape=connector;rounded=0;orthogonalLoop=1;jettySize=auto;html=1;exitX=0.5;exitY=0;exitDx=0;exitDy=0;entryX=0.363;entryY=1.025;entryDx=0;entryDy=0;labelBackgroundColor=default;strokeColor=#A8201A;align=center;verticalAlign=middle;fontFamily=Helvetica;fontSize=11;fontColor=#143642;endArrow=none;endFill=0;fillColor=#FAE5C7;entryPerimeter=0;" parent="1" source="ADRR5VOEZKfYwD3EOIca-147" target="ADRR5VOEZKfYwD3EOIca-120" edge="1">
          <mxGeometry relative="1" as="geometry">
            <Array as="points">
              <mxPoint x="250" y="270" />
            </Array>
          </mxGeometry>
        </mxCell>
        <mxCell id="ADRR5VOEZKfYwD3EOIca-147" value="for" style="rhombus;whiteSpace=wrap;html=1;labelBackgroundColor=none;fillColor=#FAE5C7;strokeColor=#0F8B8D;fontColor=#143642;rounded=0;" parent="1" vertex="1">
          <mxGeometry x="161" y="280" width="60" height="40" as="geometry" />
        </mxCell>
        <mxCell id="ADRR5VOEZKfYwD3EOIca-152" style="edgeStyle=orthogonalEdgeStyle;shape=connector;rounded=0;orthogonalLoop=1;jettySize=auto;html=1;exitX=0.5;exitY=0;exitDx=0;exitDy=0;entryX=0.75;entryY=1;entryDx=0;entryDy=0;labelBackgroundColor=default;strokeColor=#A8201A;align=center;verticalAlign=middle;fontFamily=Helvetica;fontSize=11;fontColor=#143642;endArrow=none;endFill=0;fillColor=#FAE5C7;" parent="1" source="ADRR5VOEZKfYwD3EOIca-148" target="ADRR5VOEZKfYwD3EOIca-120" edge="1">
          <mxGeometry relative="1" as="geometry" />
        </mxCell>
        <mxCell id="ADRR5VOEZKfYwD3EOIca-148" value="for" style="rhombus;whiteSpace=wrap;html=1;labelBackgroundColor=none;fillColor=#FAE5C7;strokeColor=#0F8B8D;fontColor=#143642;rounded=0;" parent="1" vertex="1">
          <mxGeometry x="278" y="280" width="60" height="40" as="geometry" />
        </mxCell>
        <mxCell id="ADRR5VOEZKfYwD3EOIca-153" value="&lt;u&gt;id&lt;/u&gt;" style="ellipse;whiteSpace=wrap;html=1;labelBackgroundColor=none;fillColor=#FAE5C7;strokeColor=#0F8B8D;fontColor=#143642;rounded=0;" parent="1" vertex="1">
          <mxGeometry x="50" y="110" width="70" height="20" as="geometry" />
        </mxCell>
        <mxCell id="ADRR5VOEZKfYwD3EOIca-156" style="edgeStyle=orthogonalEdgeStyle;shape=connector;rounded=0;orthogonalLoop=1;jettySize=auto;html=1;exitX=0.5;exitY=1;exitDx=0;exitDy=0;entryX=0.5;entryY=0;entryDx=0;entryDy=0;labelBackgroundColor=default;strokeColor=#A8201A;align=center;verticalAlign=middle;fontFamily=Helvetica;fontSize=11;fontColor=#143642;endArrow=none;endFill=0;fillColor=#FAE5C7;" parent="1" source="ADRR5VOEZKfYwD3EOIca-154" target="ADRR5VOEZKfYwD3EOIca-124" edge="1">
          <mxGeometry relative="1" as="geometry" />
        </mxCell>
        <mxCell id="ADRR5VOEZKfYwD3EOIca-154" value="belongs to" style="rhombus;whiteSpace=wrap;html=1;labelBackgroundColor=none;fillColor=#FAE5C7;strokeColor=#0F8B8D;fontColor=#143642;rounded=0;" parent="1" vertex="1">
          <mxGeometry x="211.5" y="380" width="99" height="40" as="geometry" />
        </mxCell>
        <mxCell id="ADRR5VOEZKfYwD3EOIca-157" value="name" style="ellipse;whiteSpace=wrap;html=1;labelBackgroundColor=none;fillColor=#FAE5C7;strokeColor=#0F8B8D;fontColor=#143642;rounded=0;" parent="1" vertex="1">
          <mxGeometry x="40" y="130" width="70" height="22" as="geometry" />
        </mxCell>
        <mxCell id="ADRR5VOEZKfYwD3EOIca-158" value="address" style="ellipse;whiteSpace=wrap;html=1;labelBackgroundColor=none;fillColor=#FAE5C7;strokeColor=#0F8B8D;fontColor=#143642;rounded=0;" parent="1" vertex="1">
          <mxGeometry x="40" y="150" width="70" height="30" as="geometry" />
        </mxCell>
        <mxCell id="ADRR5VOEZKfYwD3EOIca-159" value="area" style="ellipse;whiteSpace=wrap;html=1;labelBackgroundColor=none;fillColor=#FAE5C7;strokeColor=#0F8B8D;fontColor=#143642;rounded=0;" parent="1" vertex="1">
          <mxGeometry x="40" y="170" width="70" height="30" as="geometry" />
        </mxCell>
        <mxCell id="ADRR5VOEZKfYwD3EOIca-160" value="floor" style="ellipse;whiteSpace=wrap;html=1;labelBackgroundColor=none;fillColor=#FAE5C7;strokeColor=#0F8B8D;fontColor=#143642;rounded=0;" parent="1" vertex="1">
          <mxGeometry x="30" y="190" width="70" height="30" as="geometry" />
        </mxCell>
        <mxCell id="ADRR5VOEZKfYwD3EOIca-161" value="description" style="ellipse;whiteSpace=wrap;html=1;labelBackgroundColor=none;fillColor=#FAE5C7;strokeColor=#0F8B8D;fontColor=#143642;rounded=0;" parent="1" vertex="1">
          <mxGeometry x="30" y="220" width="70" height="30" as="geometry" />
        </mxCell>
        <mxCell id="ADRR5VOEZKfYwD3EOIca-162" value="rent" style="ellipse;whiteSpace=wrap;html=1;labelBackgroundColor=none;fillColor=#FAE5C7;strokeColor=#0F8B8D;fontColor=#143642;rounded=0;" parent="1" vertex="1">
          <mxGeometry x="30" y="250" width="70" height="20" as="geometry" />
        </mxCell>
        <mxCell id="ADRR5VOEZKfYwD3EOIca-163" value="utilities" style="ellipse;whiteSpace=wrap;html=1;labelBackgroundColor=none;fillColor=#FAE5C7;strokeColor=#0F8B8D;fontColor=#143642;rounded=0;" parent="1" vertex="1">
          <mxGeometry x="30" y="270" width="70" height="30" as="geometry" />
        </mxCell>
        <mxCell id="ADRR5VOEZKfYwD3EOIca-164" value="due_date" style="ellipse;whiteSpace=wrap;html=1;labelBackgroundColor=none;fillColor=#FAE5C7;strokeColor=#0F8B8D;fontColor=#143642;rounded=0;" parent="1" vertex="1">
          <mxGeometry x="40" y="290" width="70" height="30" as="geometry" />
        </mxCell>
        <mxCell id="ADRR5VOEZKfYwD3EOIca-165" value="verified" style="ellipse;whiteSpace=wrap;html=1;labelBackgroundColor=none;fillColor=#FAE5C7;strokeColor=#0F8B8D;fontColor=#143642;rounded=0;" parent="1" vertex="1">
          <mxGeometry x="50" y="310" width="70" height="30" as="geometry" />
        </mxCell>
        <mxCell id="ADRR5VOEZKfYwD3EOIca-168" style="edgeStyle=none;shape=connector;rounded=0;orthogonalLoop=1;jettySize=auto;html=1;exitX=0;exitY=0.5;exitDx=0;exitDy=0;entryX=1;entryY=0.775;entryDx=0;entryDy=0;entryPerimeter=0;labelBackgroundColor=default;strokeColor=#A8201A;align=center;verticalAlign=middle;fontFamily=Helvetica;fontSize=11;fontColor=#143642;endArrow=none;endFill=0;fillColor=#FAE5C7;" parent="1" source="ADRR5VOEZKfYwD3EOIca-120" target="ADRR5VOEZKfYwD3EOIca-157" edge="1">
          <mxGeometry relative="1" as="geometry" />
        </mxCell>
        <mxCell id="ADRR5VOEZKfYwD3EOIca-175" style="edgeStyle=none;shape=connector;rounded=0;orthogonalLoop=1;jettySize=auto;html=1;exitX=0;exitY=0.5;exitDx=0;exitDy=0;entryX=0.971;entryY=0.3;entryDx=0;entryDy=0;entryPerimeter=0;labelBackgroundColor=default;strokeColor=#A8201A;align=center;verticalAlign=middle;fontFamily=Helvetica;fontSize=11;fontColor=#143642;endArrow=none;endFill=0;fillColor=#FAE5C7;" parent="1" source="ADRR5VOEZKfYwD3EOIca-120" target="ADRR5VOEZKfYwD3EOIca-164" edge="1">
          <mxGeometry relative="1" as="geometry" />
        </mxCell>
        <mxCell id="ADRR5VOEZKfYwD3EOIca-176" style="edgeStyle=none;shape=connector;rounded=0;orthogonalLoop=1;jettySize=auto;html=1;exitX=0;exitY=0.5;exitDx=0;exitDy=0;entryX=0.957;entryY=0.1;entryDx=0;entryDy=0;entryPerimeter=0;labelBackgroundColor=default;strokeColor=#A8201A;align=center;verticalAlign=middle;fontFamily=Helvetica;fontSize=11;fontColor=#143642;endArrow=none;endFill=0;fillColor=#FAE5C7;" parent="1" source="ADRR5VOEZKfYwD3EOIca-120" target="ADRR5VOEZKfYwD3EOIca-165" edge="1">
          <mxGeometry relative="1" as="geometry" />
        </mxCell>
        <mxCell id="ADRR5VOEZKfYwD3EOIca-177" value="&lt;u&gt;id&lt;/u&gt;" style="ellipse;whiteSpace=wrap;html=1;labelBackgroundColor=none;fillColor=#FAE5C7;strokeColor=#0F8B8D;fontColor=#143642;rounded=0;" parent="1" vertex="1">
          <mxGeometry x="30" y="350" width="70" height="40" as="geometry" />
        </mxCell>
        <mxCell id="ADRR5VOEZKfYwD3EOIca-178" value="image" style="ellipse;whiteSpace=wrap;html=1;labelBackgroundColor=none;fillColor=#FAE5C7;strokeColor=#0F8B8D;fontColor=#143642;rounded=0;" parent="1" vertex="1">
          <mxGeometry x="30" y="390" width="70" height="40" as="geometry" />
        </mxCell>
        <mxCell id="ADRR5VOEZKfYwD3EOIca-179" value="created_at" style="ellipse;whiteSpace=wrap;html=1;labelBackgroundColor=none;fillColor=#FAE5C7;strokeColor=#0F8B8D;fontColor=#143642;rounded=0;" parent="1" vertex="1">
          <mxGeometry x="40" y="420" width="70" height="40" as="geometry" />
        </mxCell>
        <mxCell id="ADRR5VOEZKfYwD3EOIca-182" style="edgeStyle=none;shape=connector;rounded=0;orthogonalLoop=1;jettySize=auto;html=1;exitX=0;exitY=0.5;exitDx=0;exitDy=0;entryX=0.986;entryY=0.3;entryDx=0;entryDy=0;entryPerimeter=0;labelBackgroundColor=default;strokeColor=#A8201A;align=center;verticalAlign=middle;fontFamily=Helvetica;fontSize=11;fontColor=#143642;endArrow=none;endFill=0;fillColor=#FAE5C7;" parent="1" source="ADRR5VOEZKfYwD3EOIca-122" target="ADRR5VOEZKfYwD3EOIca-178" edge="1">
          <mxGeometry relative="1" as="geometry" />
        </mxCell>
        <mxCell id="ADRR5VOEZKfYwD3EOIca-183" style="edgeStyle=none;shape=connector;rounded=0;orthogonalLoop=1;jettySize=auto;html=1;exitX=0;exitY=0.5;exitDx=0;exitDy=0;entryX=0.957;entryY=0.25;entryDx=0;entryDy=0;entryPerimeter=0;labelBackgroundColor=default;strokeColor=#A8201A;align=center;verticalAlign=middle;fontFamily=Helvetica;fontSize=11;fontColor=#143642;endArrow=none;endFill=0;fillColor=#FAE5C7;" parent="1" source="ADRR5VOEZKfYwD3EOIca-122" target="ADRR5VOEZKfYwD3EOIca-179" edge="1">
          <mxGeometry relative="1" as="geometry" />
        </mxCell>
        <mxCell id="ADRR5VOEZKfYwD3EOIca-184" value="&lt;u&gt;id&lt;/u&gt;" style="ellipse;whiteSpace=wrap;html=1;labelBackgroundColor=none;fillColor=#FAE5C7;strokeColor=#0F8B8D;fontColor=#143642;rounded=0;" parent="1" vertex="1">
          <mxGeometry x="390" y="390" width="59" height="40" as="geometry" />
        </mxCell>
        <mxCell id="ADRR5VOEZKfYwD3EOIca-185" value="file" style="ellipse;whiteSpace=wrap;html=1;labelBackgroundColor=none;fillColor=#FAE5C7;strokeColor=#0F8B8D;fontColor=#143642;rounded=0;" parent="1" vertex="1">
          <mxGeometry x="320" y="380" width="70" height="40" as="geometry" />
        </mxCell>
        <mxCell id="ADRR5VOEZKfYwD3EOIca-186" value="created_at" style="ellipse;whiteSpace=wrap;html=1;labelBackgroundColor=none;fillColor=#FAE5C7;strokeColor=#0F8B8D;fontColor=#143642;rounded=0;" parent="1" vertex="1">
          <mxGeometry x="290" y="350" width="70" height="40" as="geometry" />
        </mxCell>
        <mxCell id="ADRR5VOEZKfYwD3EOIca-189" style="edgeStyle=none;shape=connector;rounded=0;orthogonalLoop=1;jettySize=auto;html=1;exitX=0.5;exitY=1;exitDx=0;exitDy=0;entryX=0.357;entryY=0;entryDx=0;entryDy=0;entryPerimeter=0;labelBackgroundColor=default;strokeColor=#A8201A;align=center;verticalAlign=middle;fontFamily=Helvetica;fontSize=11;fontColor=#143642;endArrow=none;endFill=0;fillColor=#FAE5C7;" parent="1" source="ADRR5VOEZKfYwD3EOIca-123" target="ADRR5VOEZKfYwD3EOIca-184" edge="1">
          <mxGeometry relative="1" as="geometry" />
        </mxCell>
        <mxCell id="ADRR5VOEZKfYwD3EOIca-190" value="&lt;u&gt;id&lt;/u&gt;" style="ellipse;whiteSpace=wrap;html=1;labelBackgroundColor=none;fillColor=#FAE5C7;strokeColor=#0F8B8D;fontColor=#143642;rounded=0;shadow=0;" parent="1" vertex="1">
          <mxGeometry x="548" y="120" width="70" height="30" as="geometry" />
        </mxCell>
        <mxCell id="ADRR5VOEZKfYwD3EOIca-191" value="number" style="ellipse;whiteSpace=wrap;html=1;labelBackgroundColor=none;fillColor=#FAE5C7;strokeColor=#0F8B8D;fontColor=#143642;rounded=0;shadow=0;" parent="1" vertex="1">
          <mxGeometry x="585" y="130" width="70" height="30" as="geometry" />
        </mxCell>
        <mxCell id="ADRR5VOEZKfYwD3EOIca-192" value="description" style="ellipse;whiteSpace=wrap;html=1;labelBackgroundColor=none;fillColor=#FAE5C7;strokeColor=#0F8B8D;fontColor=#143642;rounded=0;shadow=0;" parent="1" vertex="1">
          <mxGeometry x="613" y="150" width="70" height="20" as="geometry" />
        </mxCell>
        <mxCell id="ADRR5VOEZKfYwD3EOIca-193" value="bedrooms" style="ellipse;whiteSpace=wrap;html=1;labelBackgroundColor=none;fillColor=#FAE5C7;strokeColor=#0F8B8D;fontColor=#143642;rounded=0;shadow=0;" parent="1" vertex="1">
          <mxGeometry x="620" y="165" width="70" height="25" as="geometry" />
        </mxCell>
        <mxCell id="ADRR5VOEZKfYwD3EOIca-194" value="bathrooms" style="ellipse;whiteSpace=wrap;html=1;labelBackgroundColor=none;fillColor=#FAE5C7;strokeColor=#0F8B8D;fontColor=#143642;rounded=0;shadow=0;" parent="1" vertex="1">
          <mxGeometry x="630" y="190" width="70" height="20" as="geometry" />
        </mxCell>
        <mxCell id="ADRR5VOEZKfYwD3EOIca-195" value="size" style="ellipse;whiteSpace=wrap;html=1;labelBackgroundColor=none;fillColor=#FAE5C7;strokeColor=#0F8B8D;fontColor=#143642;rounded=0;shadow=0;" parent="1" vertex="1">
          <mxGeometry x="630" y="210" width="70" height="20" as="geometry" />
        </mxCell>
        <mxCell id="ADRR5VOEZKfYwD3EOIca-196" value="rent" style="ellipse;whiteSpace=wrap;html=1;labelBackgroundColor=none;fillColor=#FAE5C7;strokeColor=#0F8B8D;fontColor=#143642;rounded=0;shadow=0;" parent="1" vertex="1">
          <mxGeometry x="630" y="230" width="70" height="20" as="geometry" />
        </mxCell>
        <mxCell id="ADRR5VOEZKfYwD3EOIca-197" value="utilities" style="ellipse;whiteSpace=wrap;html=1;labelBackgroundColor=none;fillColor=#FAE5C7;strokeColor=#0F8B8D;fontColor=#143642;rounded=0;shadow=0;" parent="1" vertex="1">
          <mxGeometry x="630" y="250" width="70" height="20" as="geometry" />
        </mxCell>
        <mxCell id="ADRR5VOEZKfYwD3EOIca-198" value="due_date" style="ellipse;whiteSpace=wrap;html=1;labelBackgroundColor=none;fillColor=#FAE5C7;strokeColor=#0F8B8D;fontColor=#143642;rounded=0;shadow=0;" parent="1" vertex="1">
          <mxGeometry x="632" y="268" width="70" height="25" as="geometry" />
        </mxCell>
        <mxCell id="ADRR5VOEZKfYwD3EOIca-205" style="edgeStyle=none;shape=connector;rounded=0;orthogonalLoop=1;jettySize=auto;html=1;exitX=1;exitY=0.5;exitDx=0;exitDy=0;exitPerimeter=0;entryX=0.043;entryY=0.3;entryDx=0;entryDy=0;entryPerimeter=0;labelBackgroundColor=default;strokeColor=#A8201A;align=center;verticalAlign=middle;fontFamily=Helvetica;fontSize=11;fontColor=#143642;endArrow=none;endFill=0;fillColor=#FAE5C7;" parent="1" source="ADRR5VOEZKfYwD3EOIca-121" target="ADRR5VOEZKfYwD3EOIca-196" edge="1">
          <mxGeometry relative="1" as="geometry" />
        </mxCell>
        <mxCell id="ADRR5VOEZKfYwD3EOIca-206" style="edgeStyle=none;shape=connector;rounded=0;orthogonalLoop=1;jettySize=auto;html=1;exitX=1;exitY=0.5;exitDx=0;exitDy=0;exitPerimeter=0;entryX=0;entryY=0.5;entryDx=0;entryDy=0;labelBackgroundColor=default;strokeColor=#A8201A;align=center;verticalAlign=middle;fontFamily=Helvetica;fontSize=11;fontColor=#143642;endArrow=none;endFill=0;fillColor=#FAE5C7;" parent="1" source="ADRR5VOEZKfYwD3EOIca-121" target="ADRR5VOEZKfYwD3EOIca-197" edge="1">
          <mxGeometry relative="1" as="geometry" />
        </mxCell>
        <mxCell id="ADRR5VOEZKfYwD3EOIca-207" style="edgeStyle=none;shape=connector;rounded=0;orthogonalLoop=1;jettySize=auto;html=1;exitX=1;exitY=0.5;exitDx=0;exitDy=0;exitPerimeter=0;entryX=0;entryY=0.5;entryDx=0;entryDy=0;labelBackgroundColor=default;strokeColor=#A8201A;align=center;verticalAlign=middle;fontFamily=Helvetica;fontSize=11;fontColor=#143642;endArrow=none;endFill=0;fillColor=#FAE5C7;" parent="1" source="ADRR5VOEZKfYwD3EOIca-121" target="ADRR5VOEZKfYwD3EOIca-198" edge="1">
          <mxGeometry relative="1" as="geometry" />
        </mxCell>
        <mxCell id="XrSQAXkZcSsN4d7aBjkd-1" value="&lt;u&gt;id&lt;/u&gt;" style="ellipse;whiteSpace=wrap;html=1;labelBackgroundColor=none;fillColor=#FAE5C7;strokeColor=#0F8B8D;fontColor=#143642;rounded=0;shadow=0;" vertex="1" parent="1">
          <mxGeometry x="618" y="295" width="70" height="26" as="geometry" />
        </mxCell>
        <mxCell id="XrSQAXkZcSsN4d7aBjkd-2" value="start_date" style="ellipse;whiteSpace=wrap;html=1;labelBackgroundColor=none;fillColor=#FAE5C7;strokeColor=#0F8B8D;fontColor=#143642;rounded=0;shadow=0;" vertex="1" parent="1">
          <mxGeometry x="620" y="316" width="70" height="40" as="geometry" />
        </mxCell>
        <mxCell id="XrSQAXkZcSsN4d7aBjkd-3" value="end_date" style="ellipse;whiteSpace=wrap;html=1;labelBackgroundColor=none;fillColor=#FAE5C7;strokeColor=#0F8B8D;fontColor=#143642;rounded=0;shadow=0;" vertex="1" parent="1">
          <mxGeometry x="630" y="346" width="70" height="40" as="geometry" />
        </mxCell>
        <mxCell id="XrSQAXkZcSsN4d7aBjkd-4" value="end_date" style="ellipse;whiteSpace=wrap;html=1;labelBackgroundColor=none;fillColor=#FAE5C7;strokeColor=#0F8B8D;fontColor=#143642;rounded=0;shadow=0;" vertex="1" parent="1">
          <mxGeometry x="638" y="376" width="70" height="40" as="geometry" />
        </mxCell>
        <mxCell id="XrSQAXkZcSsN4d7aBjkd-5" value="deposit" style="ellipse;whiteSpace=wrap;html=1;labelBackgroundColor=none;fillColor=#FAE5C7;strokeColor=#0F8B8D;fontColor=#143642;rounded=0;shadow=0;" vertex="1" parent="1">
          <mxGeometry x="648" y="406" width="70" height="40" as="geometry" />
        </mxCell>
        <mxCell id="XrSQAXkZcSsN4d7aBjkd-6" value="rent" style="ellipse;whiteSpace=wrap;html=1;labelBackgroundColor=none;fillColor=#FAE5C7;strokeColor=#0F8B8D;fontColor=#143642;rounded=0;shadow=0;" vertex="1" parent="1">
          <mxGeometry x="648" y="436" width="70" height="30" as="geometry" />
        </mxCell>
        <mxCell id="XrSQAXkZcSsN4d7aBjkd-7" value="utilities" style="ellipse;whiteSpace=wrap;html=1;labelBackgroundColor=none;fillColor=#FAE5C7;strokeColor=#0F8B8D;fontColor=#143642;rounded=0;shadow=0;" vertex="1" parent="1">
          <mxGeometry x="638" y="462" width="70" height="30" as="geometry" />
        </mxCell>
        <mxCell id="XrSQAXkZcSsN4d7aBjkd-17" style="edgeStyle=none;rounded=0;orthogonalLoop=1;jettySize=auto;html=1;exitX=1;exitY=0.5;exitDx=0;exitDy=0;entryX=0.043;entryY=0.267;entryDx=0;entryDy=0;entryPerimeter=0;strokeColor=#A8201A;align=center;verticalAlign=middle;fontFamily=Helvetica;fontSize=11;fontColor=#143642;labelBackgroundColor=default;endArrow=none;endFill=0;fillColor=#FAE5C7;" edge="1" parent="1" source="ADRR5VOEZKfYwD3EOIca-127" target="XrSQAXkZcSsN4d7aBjkd-7">
          <mxGeometry relative="1" as="geometry" />
        </mxCell>
        <mxCell id="XrSQAXkZcSsN4d7aBjkd-18" value="&lt;u&gt;id&lt;/u&gt;" style="ellipse;whiteSpace=wrap;html=1;labelBackgroundColor=none;fillColor=#FAE5C7;strokeColor=#0F8B8D;fontColor=#143642;rounded=0;" vertex="1" parent="1">
          <mxGeometry x="100" y="440" width="70" height="30" as="geometry" />
        </mxCell>
        <mxCell id="XrSQAXkZcSsN4d7aBjkd-19" value="phone" style="ellipse;whiteSpace=wrap;html=1;labelBackgroundColor=none;fillColor=#FAE5C7;strokeColor=#0F8B8D;fontColor=#143642;rounded=0;" vertex="1" parent="1">
          <mxGeometry x="80" y="460" width="70" height="30" as="geometry" />
        </mxCell>
        <mxCell id="XrSQAXkZcSsN4d7aBjkd-20" value="facebook" style="ellipse;whiteSpace=wrap;html=1;labelBackgroundColor=none;fillColor=#FAE5C7;strokeColor=#0F8B8D;fontColor=#143642;rounded=0;" vertex="1" parent="1">
          <mxGeometry x="71" y="480" width="70" height="30" as="geometry" />
        </mxCell>
        <mxCell id="XrSQAXkZcSsN4d7aBjkd-21" value="whatsapp" style="ellipse;whiteSpace=wrap;html=1;labelBackgroundColor=none;fillColor=#FAE5C7;strokeColor=#0F8B8D;fontColor=#143642;rounded=0;" vertex="1" parent="1">
          <mxGeometry x="60" y="500" width="70" height="30" as="geometry" />
        </mxCell>
        <mxCell id="XrSQAXkZcSsN4d7aBjkd-22" value="twitter" style="ellipse;whiteSpace=wrap;html=1;labelBackgroundColor=none;fillColor=#FAE5C7;strokeColor=#0F8B8D;fontColor=#143642;rounded=0;" vertex="1" parent="1">
          <mxGeometry x="60" y="520" width="70" height="30" as="geometry" />
        </mxCell>
        <mxCell id="XrSQAXkZcSsN4d7aBjkd-23" value="telegram" style="ellipse;whiteSpace=wrap;html=1;labelBackgroundColor=none;fillColor=#FAE5C7;strokeColor=#0F8B8D;fontColor=#143642;rounded=0;" vertex="1" parent="1">
          <mxGeometry x="60" y="546" width="70" height="30" as="geometry" />
        </mxCell>
        <mxCell id="XrSQAXkZcSsN4d7aBjkd-24" value="instagram" style="ellipse;whiteSpace=wrap;html=1;labelBackgroundColor=none;fillColor=#FAE5C7;strokeColor=#0F8B8D;fontColor=#143642;rounded=0;" vertex="1" parent="1">
          <mxGeometry x="71" y="570" width="69" height="30" as="geometry" />
        </mxCell>
        <mxCell id="XrSQAXkZcSsN4d7aBjkd-25" value="nid" style="ellipse;whiteSpace=wrap;html=1;labelBackgroundColor=none;fillColor=#FAE5C7;strokeColor=#0F8B8D;fontColor=#143642;rounded=0;" vertex="1" parent="1">
          <mxGeometry x="80" y="595" width="70" height="30" as="geometry" />
        </mxCell>
        <mxCell id="XrSQAXkZcSsN4d7aBjkd-26" value="address" style="ellipse;whiteSpace=wrap;html=1;labelBackgroundColor=none;fillColor=#FAE5C7;strokeColor=#0F8B8D;fontColor=#143642;rounded=0;" vertex="1" parent="1">
          <mxGeometry x="90" y="620" width="70" height="30" as="geometry" />
        </mxCell>
        <mxCell id="XrSQAXkZcSsN4d7aBjkd-27" style="edgeStyle=none;rounded=0;orthogonalLoop=1;jettySize=auto;html=1;exitX=0;exitY=0.5;exitDx=0;exitDy=0;entryX=0.957;entryY=0.8;entryDx=0;entryDy=0;entryPerimeter=0;strokeColor=#A8201A;align=center;verticalAlign=middle;fontFamily=Helvetica;fontSize=11;fontColor=#143642;labelBackgroundColor=default;endArrow=none;endFill=0;fillColor=#FAE5C7;" edge="1" parent="1" source="ADRR5VOEZKfYwD3EOIca-124" target="XrSQAXkZcSsN4d7aBjkd-18">
          <mxGeometry relative="1" as="geometry" />
        </mxCell>
        <mxCell id="XrSQAXkZcSsN4d7aBjkd-32" style="edgeStyle=none;rounded=0;orthogonalLoop=1;jettySize=auto;html=1;exitX=0;exitY=0.5;exitDx=0;exitDy=0;entryX=1.029;entryY=0.393;entryDx=0;entryDy=0;entryPerimeter=0;strokeColor=#A8201A;align=center;verticalAlign=middle;fontFamily=Helvetica;fontSize=11;fontColor=#143642;labelBackgroundColor=default;endArrow=none;endFill=0;fillColor=#FAE5C7;" edge="1" parent="1" source="ADRR5VOEZKfYwD3EOIca-124" target="XrSQAXkZcSsN4d7aBjkd-23">
          <mxGeometry relative="1" as="geometry" />
        </mxCell>
        <mxCell id="XrSQAXkZcSsN4d7aBjkd-34" style="edgeStyle=none;rounded=0;orthogonalLoop=1;jettySize=auto;html=1;exitX=0;exitY=0.5;exitDx=0;exitDy=0;entryX=0.959;entryY=0.381;entryDx=0;entryDy=0;entryPerimeter=0;strokeColor=#A8201A;align=center;verticalAlign=middle;fontFamily=Helvetica;fontSize=11;fontColor=#143642;labelBackgroundColor=default;endArrow=none;endFill=0;fillColor=#FAE5C7;" edge="1" parent="1" source="ADRR5VOEZKfYwD3EOIca-124" target="XrSQAXkZcSsN4d7aBjkd-25">
          <mxGeometry relative="1" as="geometry" />
        </mxCell>
        <mxCell id="XrSQAXkZcSsN4d7aBjkd-35" style="edgeStyle=none;rounded=0;orthogonalLoop=1;jettySize=auto;html=1;exitX=0;exitY=0.5;exitDx=0;exitDy=0;entryX=0.971;entryY=0.232;entryDx=0;entryDy=0;entryPerimeter=0;strokeColor=#A8201A;align=center;verticalAlign=middle;fontFamily=Helvetica;fontSize=11;fontColor=#143642;labelBackgroundColor=default;endArrow=none;endFill=0;fillColor=#FAE5C7;" edge="1" parent="1" source="ADRR5VOEZKfYwD3EOIca-124" target="XrSQAXkZcSsN4d7aBjkd-26">
          <mxGeometry relative="1" as="geometry" />
        </mxCell>
        <mxCell id="XrSQAXkZcSsN4d7aBjkd-41" style="edgeStyle=orthogonalEdgeStyle;rounded=0;orthogonalLoop=1;jettySize=auto;html=1;exitX=0.5;exitY=1;exitDx=0;exitDy=0;strokeColor=#A8201A;align=center;verticalAlign=middle;fontFamily=Helvetica;fontSize=11;fontColor=#143642;labelBackgroundColor=default;endArrow=none;endFill=0;fillColor=#FAE5C7;" edge="1" parent="1" source="XrSQAXkZcSsN4d7aBjkd-36" target="ADRR5VOEZKfYwD3EOIca-126">
          <mxGeometry relative="1" as="geometry">
            <Array as="points">
              <mxPoint x="248" y="590" />
              <mxPoint x="258" y="590" />
            </Array>
          </mxGeometry>
        </mxCell>
        <mxCell id="XrSQAXkZcSsN4d7aBjkd-36" value="is" style="rhombus;whiteSpace=wrap;html=1;labelBackgroundColor=none;fillColor=#FAE5C7;strokeColor=#0F8B8D;fontColor=#143642;rounded=0;" vertex="1" parent="1">
          <mxGeometry x="218" y="544" width="60" height="30" as="geometry" />
        </mxCell>
        <mxCell id="XrSQAXkZcSsN4d7aBjkd-42" style="edgeStyle=orthogonalEdgeStyle;rounded=0;orthogonalLoop=1;jettySize=auto;html=1;exitX=0.5;exitY=1;exitDx=0;exitDy=0;strokeColor=#A8201A;align=center;verticalAlign=middle;fontFamily=Helvetica;fontSize=11;fontColor=#143642;labelBackgroundColor=default;endArrow=none;endFill=0;fillColor=#FAE5C7;" edge="1" parent="1" source="XrSQAXkZcSsN4d7aBjkd-37" target="ADRR5VOEZKfYwD3EOIca-126">
          <mxGeometry relative="1" as="geometry">
            <Array as="points">
              <mxPoint x="308" y="615" />
              <mxPoint x="270" y="615" />
            </Array>
          </mxGeometry>
        </mxCell>
        <mxCell id="XrSQAXkZcSsN4d7aBjkd-37" value="is" style="rhombus;whiteSpace=wrap;html=1;labelBackgroundColor=none;fillColor=#FAE5C7;strokeColor=#0F8B8D;fontColor=#143642;rounded=0;" vertex="1" parent="1">
          <mxGeometry x="283" y="544" width="60" height="30" as="geometry" />
        </mxCell>
        <mxCell id="XrSQAXkZcSsN4d7aBjkd-44" value="for" style="rhombus;whiteSpace=wrap;html=1;labelBackgroundColor=none;fillColor=#FAE5C7;strokeColor=#0F8B8D;fontColor=#143642;rounded=0;" vertex="1" parent="1">
          <mxGeometry x="415.5" y="455" width="60" height="30" as="geometry" />
        </mxCell>
        <mxCell id="XrSQAXkZcSsN4d7aBjkd-45" value="for" style="rhombus;whiteSpace=wrap;html=1;labelBackgroundColor=none;fillColor=#FAE5C7;strokeColor=#0F8B8D;fontColor=#143642;rounded=0;" vertex="1" parent="1">
          <mxGeometry x="473" y="290" width="60" height="30" as="geometry" />
        </mxCell>
        <mxCell id="XrSQAXkZcSsN4d7aBjkd-51" style="edgeStyle=orthogonalEdgeStyle;rounded=0;orthogonalLoop=1;jettySize=auto;html=1;exitX=0.5;exitY=0;exitDx=0;exitDy=0;entryX=0.5;entryY=1;entryDx=0;entryDy=0;entryPerimeter=0;strokeColor=#A8201A;align=center;verticalAlign=middle;fontFamily=Helvetica;fontSize=11;fontColor=#143642;labelBackgroundColor=default;endArrow=none;endFill=0;fillColor=#FAE5C7;" edge="1" parent="1" source="XrSQAXkZcSsN4d7aBjkd-45" target="ADRR5VOEZKfYwD3EOIca-121">
          <mxGeometry relative="1" as="geometry" />
        </mxCell>
        <mxCell id="XrSQAXkZcSsN4d7aBjkd-54" style="edgeStyle=orthogonalEdgeStyle;rounded=0;orthogonalLoop=1;jettySize=auto;html=1;exitX=0.5;exitY=1;exitDx=0;exitDy=0;entryX=0.5;entryY=0;entryDx=0;entryDy=0;strokeColor=#A8201A;align=center;verticalAlign=middle;fontFamily=Helvetica;fontSize=11;fontColor=#143642;labelBackgroundColor=default;endArrow=none;endFill=0;fillColor=#FAE5C7;" edge="1" parent="1" source="XrSQAXkZcSsN4d7aBjkd-52" target="ADRR5VOEZKfYwD3EOIca-128">
          <mxGeometry relative="1" as="geometry" />
        </mxCell>
        <mxCell id="XrSQAXkZcSsN4d7aBjkd-52" value="for" style="rhombus;whiteSpace=wrap;html=1;labelBackgroundColor=none;fillColor=#FAE5C7;strokeColor=#0F8B8D;fontColor=#143642;rounded=0;" vertex="1" parent="1">
          <mxGeometry x="520" y="426" width="60" height="30" as="geometry" />
        </mxCell>
        <mxCell id="XrSQAXkZcSsN4d7aBjkd-55" value="&lt;u&gt;id&lt;/u&gt;" style="ellipse;whiteSpace=wrap;html=1;labelBackgroundColor=none;fillColor=#FAE5C7;strokeColor=#0F8B8D;fontColor=#143642;rounded=0;" vertex="1" parent="1">
          <mxGeometry x="425.5" y="490" width="70" height="25" as="geometry" />
        </mxCell>
        <mxCell id="XrSQAXkZcSsN4d7aBjkd-56" value="name" style="ellipse;whiteSpace=wrap;html=1;labelBackgroundColor=none;fillColor=#FAE5C7;strokeColor=#0F8B8D;fontColor=#143642;rounded=0;" vertex="1" parent="1">
          <mxGeometry x="415.5" y="513" width="69.5" height="24" as="geometry" />
        </mxCell>
        <mxCell id="XrSQAXkZcSsN4d7aBjkd-57" value="phone" style="ellipse;whiteSpace=wrap;html=1;labelBackgroundColor=none;fillColor=#FAE5C7;strokeColor=#0F8B8D;fontColor=#143642;rounded=0;" vertex="1" parent="1">
          <mxGeometry x="408" y="537" width="69.5" height="24" as="geometry" />
        </mxCell>
        <mxCell id="XrSQAXkZcSsN4d7aBjkd-58" value="nid" style="ellipse;whiteSpace=wrap;html=1;labelBackgroundColor=none;fillColor=#FAE5C7;strokeColor=#0F8B8D;fontColor=#143642;rounded=0;" vertex="1" parent="1">
          <mxGeometry x="384.75" y="552" width="69.5" height="24" as="geometry" />
        </mxCell>
        <mxCell id="XrSQAXkZcSsN4d7aBjkd-59" value="passport" style="ellipse;whiteSpace=wrap;html=1;labelBackgroundColor=none;fillColor=#FAE5C7;strokeColor=#0F8B8D;fontColor=#143642;rounded=0;" vertex="1" parent="1">
          <mxGeometry x="350" y="571" width="69.5" height="24" as="geometry" />
        </mxCell>
        <mxCell id="XrSQAXkZcSsN4d7aBjkd-63" style="edgeStyle=none;rounded=0;orthogonalLoop=1;jettySize=auto;html=1;exitX=0.5;exitY=1;exitDx=0;exitDy=0;entryX=0.089;entryY=0.264;entryDx=0;entryDy=0;entryPerimeter=0;strokeColor=#A8201A;align=center;verticalAlign=middle;fontFamily=Helvetica;fontSize=11;fontColor=#143642;labelBackgroundColor=default;endArrow=none;endFill=0;fillColor=#FAE5C7;" edge="1" parent="1" source="ADRR5VOEZKfYwD3EOIca-125" target="XrSQAXkZcSsN4d7aBjkd-58">
          <mxGeometry relative="1" as="geometry" />
        </mxCell>
        <mxCell id="XrSQAXkZcSsN4d7aBjkd-64" style="edgeStyle=none;rounded=0;orthogonalLoop=1;jettySize=auto;html=1;exitX=0.5;exitY=1;exitDx=0;exitDy=0;entryX=0.255;entryY=0.102;entryDx=0;entryDy=0;entryPerimeter=0;strokeColor=#A8201A;align=center;verticalAlign=middle;fontFamily=Helvetica;fontSize=11;fontColor=#143642;labelBackgroundColor=default;endArrow=none;endFill=0;fillColor=#FAE5C7;" edge="1" parent="1" source="ADRR5VOEZKfYwD3EOIca-125" target="XrSQAXkZcSsN4d7aBjkd-59">
          <mxGeometry relative="1" as="geometry" />
        </mxCell>
        <mxCell id="XrSQAXkZcSsN4d7aBjkd-66" value="&lt;u&gt;id&lt;/u&gt;" style="ellipse;whiteSpace=wrap;html=1;labelBackgroundColor=none;fillColor=#FAE5C7;strokeColor=#0F8B8D;fontColor=#143642;rounded=0;shadow=0;" vertex="1" parent="1">
          <mxGeometry x="638" y="495" width="70" height="20" as="geometry" />
        </mxCell>
        <mxCell id="XrSQAXkZcSsN4d7aBjkd-67" value="month" style="ellipse;whiteSpace=wrap;html=1;labelBackgroundColor=none;fillColor=#FAE5C7;strokeColor=#0F8B8D;fontColor=#143642;rounded=0;shadow=0;" vertex="1" parent="1">
          <mxGeometry x="638" y="517" width="70" height="20" as="geometry" />
        </mxCell>
        <mxCell id="XrSQAXkZcSsN4d7aBjkd-68" value="particulars" style="ellipse;whiteSpace=wrap;html=1;labelBackgroundColor=none;fillColor=#FAE5C7;strokeColor=#0F8B8D;fontColor=#143642;rounded=0;shadow=0;" vertex="1" parent="1">
          <mxGeometry x="638" y="533" width="70" height="20" as="geometry" />
        </mxCell>
        <mxCell id="XrSQAXkZcSsN4d7aBjkd-69" value="comments" style="ellipse;whiteSpace=wrap;html=1;labelBackgroundColor=none;fillColor=#FAE5C7;strokeColor=#0F8B8D;fontColor=#143642;rounded=0;shadow=0;" vertex="1" parent="1">
          <mxGeometry x="625" y="589" width="70" height="20" as="geometry" />
        </mxCell>
        <mxCell id="XrSQAXkZcSsN4d7aBjkd-70" value="date" style="ellipse;whiteSpace=wrap;html=1;labelBackgroundColor=none;fillColor=#FAE5C7;strokeColor=#0F8B8D;fontColor=#143642;rounded=0;shadow=0;" vertex="1" parent="1">
          <mxGeometry x="638" y="549" width="70" height="20" as="geometry" />
        </mxCell>
        <mxCell id="XrSQAXkZcSsN4d7aBjkd-71" value="amount" style="ellipse;whiteSpace=wrap;html=1;labelBackgroundColor=none;fillColor=#FAE5C7;strokeColor=#0F8B8D;fontColor=#143642;rounded=0;shadow=0;" vertex="1" parent="1">
          <mxGeometry x="630" y="569" width="70" height="20" as="geometry" />
        </mxCell>
        <mxCell id="XrSQAXkZcSsN4d7aBjkd-72" value="due_date" style="ellipse;whiteSpace=wrap;html=1;labelBackgroundColor=none;fillColor=#FAE5C7;strokeColor=#0F8B8D;fontColor=#143642;rounded=0;shadow=0;" vertex="1" parent="1">
          <mxGeometry x="620" y="610" width="70" height="20" as="geometry" />
        </mxCell>
        <mxCell id="XrSQAXkZcSsN4d7aBjkd-73" value="paid" style="ellipse;whiteSpace=wrap;html=1;labelBackgroundColor=none;fillColor=#FAE5C7;strokeColor=#0F8B8D;fontColor=#143642;rounded=0;shadow=0;" vertex="1" parent="1">
          <mxGeometry x="618" y="630" width="70" height="20" as="geometry" />
        </mxCell>
        <mxCell id="XrSQAXkZcSsN4d7aBjkd-74" value="due" style="ellipse;whiteSpace=wrap;html=1;labelBackgroundColor=none;fillColor=#FAE5C7;strokeColor=#0F8B8D;fontColor=#143642;rounded=0;shadow=0;" vertex="1" parent="1">
          <mxGeometry x="608" y="650" width="70" height="20" as="geometry" />
        </mxCell>
        <mxCell id="XrSQAXkZcSsN4d7aBjkd-91" value="&lt;u&gt;id&lt;/u&gt;" style="ellipse;whiteSpace=wrap;html=1;labelBackgroundColor=none;fillColor=#FAE5C7;strokeColor=#0F8B8D;fontColor=#143642;rounded=0;" vertex="1" parent="1">
          <mxGeometry x="90" y="652.5" width="70" height="17.5" as="geometry" />
        </mxCell>
        <mxCell id="XrSQAXkZcSsN4d7aBjkd-92" value="first_name" style="ellipse;whiteSpace=wrap;html=1;labelBackgroundColor=none;fillColor=#FAE5C7;strokeColor=#0F8B8D;fontColor=#143642;rounded=0;" vertex="1" parent="1">
          <mxGeometry x="108" y="668" width="70" height="26" as="geometry" />
        </mxCell>
        <mxCell id="XrSQAXkZcSsN4d7aBjkd-93" value="last_name" style="ellipse;whiteSpace=wrap;html=1;labelBackgroundColor=none;fillColor=#FAE5C7;strokeColor=#0F8B8D;fontColor=#143642;rounded=0;" vertex="1" parent="1">
          <mxGeometry x="123.75" y="690" width="70" height="24" as="geometry" />
        </mxCell>
        <mxCell id="XrSQAXkZcSsN4d7aBjkd-94" value="email" style="ellipse;whiteSpace=wrap;html=1;labelBackgroundColor=none;fillColor=#FAE5C7;strokeColor=#0F8B8D;fontColor=#143642;rounded=0;" vertex="1" parent="1">
          <mxGeometry x="144" y="714" width="70" height="20" as="geometry" />
        </mxCell>
        <mxCell id="XrSQAXkZcSsN4d7aBjkd-95" value="password" style="ellipse;whiteSpace=wrap;html=1;labelBackgroundColor=none;fillColor=#FAE5C7;strokeColor=#0F8B8D;fontColor=#143642;rounded=0;" vertex="1" parent="1">
          <mxGeometry x="189" y="724" width="70" height="20" as="geometry" />
        </mxCell>
        <mxCell id="XrSQAXkZcSsN4d7aBjkd-97" style="edgeStyle=none;rounded=0;orthogonalLoop=1;jettySize=auto;html=1;exitX=0.5;exitY=1;exitDx=0;exitDy=0;entryX=1.029;entryY=0.307;entryDx=0;entryDy=0;entryPerimeter=0;strokeColor=#A8201A;align=center;verticalAlign=middle;fontFamily=Helvetica;fontSize=11;fontColor=#143642;labelBackgroundColor=default;endArrow=none;endFill=0;fillColor=#FAE5C7;" edge="1" parent="1" source="ADRR5VOEZKfYwD3EOIca-126" target="XrSQAXkZcSsN4d7aBjkd-92">
          <mxGeometry relative="1" as="geometry" />
        </mxCell>
        <mxCell id="XrSQAXkZcSsN4d7aBjkd-98" style="edgeStyle=none;rounded=0;orthogonalLoop=1;jettySize=auto;html=1;exitX=0.5;exitY=1;exitDx=0;exitDy=0;entryX=0.971;entryY=0.333;entryDx=0;entryDy=0;entryPerimeter=0;strokeColor=#A8201A;align=center;verticalAlign=middle;fontFamily=Helvetica;fontSize=11;fontColor=#143642;labelBackgroundColor=default;endArrow=none;endFill=0;fillColor=#FAE5C7;" edge="1" parent="1" source="ADRR5VOEZKfYwD3EOIca-126" target="XrSQAXkZcSsN4d7aBjkd-93">
          <mxGeometry relative="1" as="geometry" />
        </mxCell>
        <mxCell id="XrSQAXkZcSsN4d7aBjkd-100" style="edgeStyle=none;rounded=0;orthogonalLoop=1;jettySize=auto;html=1;exitX=0.5;exitY=1;exitDx=0;exitDy=0;entryX=0.67;entryY=0.043;entryDx=0;entryDy=0;entryPerimeter=0;strokeColor=#A8201A;align=center;verticalAlign=middle;fontFamily=Helvetica;fontSize=11;fontColor=#143642;labelBackgroundColor=default;endArrow=none;endFill=0;fillColor=#FAE5C7;" edge="1" parent="1" source="ADRR5VOEZKfYwD3EOIca-126" target="XrSQAXkZcSsN4d7aBjkd-95">
          <mxGeometry relative="1" as="geometry" />
        </mxCell>
        <mxCell id="XrSQAXkZcSsN4d7aBjkd-111" style="edgeStyle=orthogonalEdgeStyle;rounded=0;orthogonalLoop=1;jettySize=auto;html=1;exitX=0.5;exitY=1;exitDx=0;exitDy=0;entryX=0.5;entryY=0;entryDx=0;entryDy=0;strokeColor=#A8201A;align=center;verticalAlign=middle;fontFamily=Helvetica;fontSize=11;fontColor=#143642;labelBackgroundColor=default;endArrow=none;endFill=0;fillColor=#FAE5C7;" edge="1" parent="1" source="XrSQAXkZcSsN4d7aBjkd-101" target="ADRR5VOEZKfYwD3EOIca-129">
          <mxGeometry relative="1" as="geometry" />
        </mxCell>
        <mxCell id="XrSQAXkZcSsN4d7aBjkd-112" style="edgeStyle=orthogonalEdgeStyle;rounded=0;orthogonalLoop=1;jettySize=auto;html=1;exitX=0.5;exitY=0;exitDx=0;exitDy=0;entryX=0.5;entryY=1;entryDx=0;entryDy=0;strokeColor=#A8201A;align=center;verticalAlign=middle;fontFamily=Helvetica;fontSize=11;fontColor=#143642;labelBackgroundColor=default;endArrow=none;endFill=0;fillColor=#FAE5C7;" edge="1" parent="1" source="XrSQAXkZcSsN4d7aBjkd-101" target="ADRR5VOEZKfYwD3EOIca-128">
          <mxGeometry relative="1" as="geometry" />
        </mxCell>
        <mxCell id="XrSQAXkZcSsN4d7aBjkd-101" value="for" style="rhombus;whiteSpace=wrap;html=1;labelBackgroundColor=none;fillColor=#FAE5C7;strokeColor=#0F8B8D;fontColor=#143642;rounded=0;" vertex="1" parent="1">
          <mxGeometry x="488" y="579" width="60" height="30" as="geometry" />
        </mxCell>
        <mxCell id="XrSQAXkZcSsN4d7aBjkd-114" style="edgeStyle=orthogonalEdgeStyle;rounded=0;orthogonalLoop=1;jettySize=auto;html=1;exitX=0.5;exitY=1;exitDx=0;exitDy=0;entryX=1;entryY=0.5;entryDx=0;entryDy=0;strokeColor=#A8201A;align=center;verticalAlign=middle;fontFamily=Helvetica;fontSize=11;fontColor=#143642;labelBackgroundColor=default;endArrow=none;endFill=0;fillColor=#FAE5C7;" edge="1" parent="1" source="XrSQAXkZcSsN4d7aBjkd-102" target="ADRR5VOEZKfYwD3EOIca-130">
          <mxGeometry relative="1" as="geometry">
            <Array as="points">
              <mxPoint x="443" y="630" />
              <mxPoint x="395" y="630" />
            </Array>
          </mxGeometry>
        </mxCell>
        <mxCell id="XrSQAXkZcSsN4d7aBjkd-102" value="for" style="rhombus;whiteSpace=wrap;html=1;labelBackgroundColor=none;fillColor=#FAE5C7;strokeColor=#0F8B8D;fontColor=#143642;rounded=0;" vertex="1" parent="1">
          <mxGeometry x="413" y="590" width="60" height="30" as="geometry" />
        </mxCell>
        <mxCell id="XrSQAXkZcSsN4d7aBjkd-103" value="&lt;u&gt;id&lt;/u&gt;" style="ellipse;whiteSpace=wrap;html=1;labelBackgroundColor=none;fillColor=#FAE5C7;strokeColor=#0F8B8D;fontColor=#143642;rounded=0;shadow=0;" vertex="1" parent="1">
          <mxGeometry x="475.5" y="694" width="70" height="20" as="geometry" />
        </mxCell>
        <mxCell id="XrSQAXkZcSsN4d7aBjkd-104" value="description" style="ellipse;whiteSpace=wrap;html=1;labelBackgroundColor=none;fillColor=#FAE5C7;strokeColor=#0F8B8D;fontColor=#143642;rounded=0;shadow=0;" vertex="1" parent="1">
          <mxGeometry x="528" y="690" width="70" height="20" as="geometry" />
        </mxCell>
        <mxCell id="XrSQAXkZcSsN4d7aBjkd-105" value="amount" style="ellipse;whiteSpace=wrap;html=1;labelBackgroundColor=none;fillColor=#FAE5C7;strokeColor=#0F8B8D;fontColor=#143642;rounded=0;shadow=0;" vertex="1" parent="1">
          <mxGeometry x="578" y="674" width="70" height="20" as="geometry" />
        </mxCell>
        <mxCell id="XrSQAXkZcSsN4d7aBjkd-115" value="&lt;u&gt;id&lt;/u&gt;" style="ellipse;whiteSpace=wrap;html=1;labelBackgroundColor=none;fillColor=#FAE5C7;strokeColor=#0F8B8D;fontColor=#143642;rounded=0;shadow=0;" vertex="1" parent="1">
          <mxGeometry x="255.5" y="680" width="41" height="20" as="geometry" />
        </mxCell>
        <mxCell id="XrSQAXkZcSsN4d7aBjkd-116" value="method" style="ellipse;whiteSpace=wrap;html=1;labelBackgroundColor=none;fillColor=#FAE5C7;strokeColor=#0F8B8D;fontColor=#143642;rounded=0;shadow=0;" vertex="1" parent="1">
          <mxGeometry x="261" y="700" width="55" height="20" as="geometry" />
        </mxCell>
        <mxCell id="XrSQAXkZcSsN4d7aBjkd-117" value="amount" style="ellipse;whiteSpace=wrap;html=1;labelBackgroundColor=none;fillColor=#FAE5C7;strokeColor=#0F8B8D;fontColor=#143642;rounded=0;shadow=0;" vertex="1" parent="1">
          <mxGeometry x="334.5" y="728" width="51" height="20" as="geometry" />
        </mxCell>
        <mxCell id="XrSQAXkZcSsN4d7aBjkd-118" value="account" style="ellipse;whiteSpace=wrap;html=1;labelBackgroundColor=none;fillColor=#FAE5C7;strokeColor=#0F8B8D;fontColor=#143642;rounded=0;shadow=0;" vertex="1" parent="1">
          <mxGeometry x="290" y="717" width="55" height="20" as="geometry" />
        </mxCell>
        <mxCell id="XrSQAXkZcSsN4d7aBjkd-123" value="comments" style="ellipse;whiteSpace=wrap;html=1;labelBackgroundColor=none;fillColor=#FAE5C7;strokeColor=#0F8B8D;fontColor=#143642;rounded=0;shadow=0;" vertex="1" parent="1">
          <mxGeometry x="385" y="728" width="66.5" height="20" as="geometry" />
        </mxCell>
        <mxCell id="XrSQAXkZcSsN4d7aBjkd-124" value="date" style="ellipse;whiteSpace=wrap;html=1;labelBackgroundColor=none;fillColor=#FAE5C7;strokeColor=#0F8B8D;fontColor=#143642;rounded=0;shadow=0;" vertex="1" parent="1">
          <mxGeometry x="414" y="708" width="66.5" height="20" as="geometry" />
        </mxCell>
      </root>
    </mxGraphModel>
  </diagram>
</mxfile>
